<svg width="68" height="68" viewBox="0 0 68 68" fill="none" xmlns="http://www.w3.org/2000/svg">
<g clip-path="url(#clip0_11_4338)">
<path d="M44.3259 34C44.3259 39.7029 39.7029 44.3259 34 44.3259C28.2971 44.3259 23.6741 39.7029 23.6741 34C23.6741 28.2971 28.2971 23.6741 34 23.6741C39.7029 23.6741 44.3259 28.2971 44.3259 34ZM26.7719 34C26.7719 37.992 30.008 41.2281 34 41.2281C37.992 41.2281 41.2281 37.992 41.2281 34C41.2281 30.008 37.992 26.7719 34 26.7719C30.008 26.7719 26.7719 30.008 26.7719 34Z" fill="#F19413"/>
<path d="M50.7393 32.5355C52.06 32.4199 53.052 31.2501 52.7727 29.9541C51.9381 26.0813 49.9203 22.54 46.9699 19.8379C43.4261 16.5925 38.7945 14.7936 33.9893 14.7963C29.184 14.7989 24.5544 16.603 21.0143 19.8524C18.0668 22.5578 16.053 26.1013 15.2227 29.975C14.9449 31.2713 15.9382 32.4401 17.259 32.5542C18.5799 32.6682 19.7234 31.6809 20.055 30.3973C20.7466 27.7206 22.1991 25.2815 24.2607 23.3893C26.9158 20.9523 30.388 19.5992 33.9919 19.5972C37.5959 19.5952 41.0696 20.9444 43.7274 23.3784C45.7911 25.2684 47.2464 27.7058 47.9409 30.3817C48.274 31.6649 49.4186 32.651 50.7393 32.5355Z" fill="#00497A"/>
<path d="M5.44 30.6C5.44 29.4733 6.35334 28.56 7.48 28.56H17C18.1267 28.56 19.04 29.4733 19.04 30.6C19.04 31.7267 18.1267 32.64 17 32.64H7.48C6.35334 32.64 5.44 31.7267 5.44 30.6Z" fill="#00497A"/>
<path fill-rule="evenodd" clip-rule="evenodd" d="M15.2383 38.1134C14.959 36.8174 15.9511 35.6476 17.2718 35.532C18.5925 35.4165 19.7371 36.4026 20.0701 37.6858C20.7675 40.3726 22.2317 42.8186 24.3082 44.7115C26.9801 47.1472 30.4702 48.4888 34.0856 48.4701C37.701 48.4514 41.1771 47.0737 43.8236 44.6105C45.8804 42.6962 47.3192 40.2351 47.9887 37.5413C48.3085 36.2547 49.4428 35.2568 50.7646 35.3587C50.7908 35.3607 50.8169 35.3631 50.8428 35.366C50.8947 35.362 50.9471 35.36 51 35.36H59.16C60.2867 35.36 61.2 36.2734 61.2 37.4C61.2 38.5267 60.2867 39.44 59.16 39.44H52.448C51.4859 42.7415 49.6471 45.749 47.0944 48.1248C43.5657 51.4091 38.9309 53.246 34.1105 53.271C29.29 53.2959 24.6364 51.507 21.0739 48.2595C18.1059 45.554 16.0761 42.0009 15.2383 38.1134Z" fill="#00497A"/>
<path fill-rule="evenodd" clip-rule="evenodd" d="M29.8445 11.6723C29.2881 11.6723 28.8371 12.1233 28.8371 12.6797V13.3586C28.8371 13.915 29.2881 14.366 29.8445 14.366H30.7825V15.3389H37.2175V14.366H38.1556C38.712 14.366 39.163 13.915 39.163 13.3586V12.6797C39.163 12.1233 38.712 11.6723 38.1556 11.6723H29.8445Z" fill="#00497A"/>
</g>
<defs>
<clipPath id="clip0_11_4338">
<rect width="68" height="68" fill="white"/>
</clipPath>
</defs>
</svg>
