<svg width="276" height="69" viewBox="0 0 276 69" fill="none" xmlns="http://www.w3.org/2000/svg">
<g clip-path="url(#clip0_43_3520)">
<rect x="0.5" y="0.5" width="68" height="68" fill="#FDFCFF"/>
<path d="M44.8259 34.5C44.8259 40.2029 40.2029 44.8259 34.5 44.8259C28.7972 44.8259 24.1741 40.2029 24.1741 34.5C24.1741 28.7972 28.7972 24.1741 34.5 24.1741C40.2029 24.1741 44.8259 28.7972 44.8259 34.5ZM27.2719 34.5C27.2719 38.492 30.508 41.7282 34.5 41.7282C38.492 41.7282 41.7282 38.492 41.7282 34.5C41.7282 30.508 38.492 27.2719 34.5 27.2719C30.508 27.2719 27.2719 30.508 27.2719 34.5Z" fill="#F19413"/>
<path d="M51.2393 33.0355C52.5599 32.9199 53.552 31.7501 53.2727 30.4541C52.4381 26.5813 50.4203 23.04 47.4698 20.3379C43.9261 17.0925 39.2945 15.2936 34.4892 15.2963C29.684 15.2989 25.0544 17.103 21.5143 20.3524C18.5668 23.0578 16.553 26.6013 15.7227 30.475C15.4449 31.7713 16.4382 32.9401 17.759 33.0542C19.0799 33.1682 20.2234 32.1809 20.555 30.8973C21.2465 28.2206 22.6991 25.7815 24.7607 23.8893C27.4158 21.4523 30.888 20.0992 34.4919 20.0972C38.0958 20.0952 41.5696 21.4444 44.2274 23.8784C46.2911 25.7684 47.7464 28.2058 48.4409 30.8817C48.7739 32.1649 49.9186 33.151 51.2393 33.0355Z" fill="#00497A"/>
<path d="M5.94002 31.1C5.94002 29.9733 6.85336 29.06 7.98002 29.06H17.5C18.6267 29.06 19.54 29.9733 19.54 31.1C19.54 32.2267 18.6267 33.14 17.5 33.14H7.98002C6.85336 33.14 5.94002 32.2267 5.94002 31.1Z" fill="#00497A"/>
<path fill-rule="evenodd" clip-rule="evenodd" d="M15.7383 38.6134C15.459 37.3174 16.4511 36.1476 17.7717 36.032C19.0924 35.9165 20.2371 36.9025 20.5701 38.1858C21.2675 40.8725 22.7317 43.3186 24.8082 45.2115C27.4801 47.6471 30.9702 48.9888 34.5856 48.9701C38.201 48.9514 41.677 47.5737 44.3236 45.1105C46.3804 43.1962 47.8192 40.7351 48.4887 38.0413C48.8084 36.7547 49.9428 35.7568 51.2646 35.8587C51.2908 35.8607 51.3169 35.8631 51.3428 35.866C51.3947 35.862 51.4471 35.86 51.5 35.86H59.66C60.7867 35.86 61.7 36.7733 61.7 37.9C61.7 39.0267 60.7867 39.94 59.66 39.94H52.948C51.9859 43.2415 50.1471 46.249 47.5944 48.6248C44.0657 51.909 39.4309 53.746 34.6104 53.771C29.79 53.7959 25.1364 52.007 21.5739 48.7595C18.6059 46.0539 16.5761 42.5009 15.7383 38.6134Z" fill="#00497A"/>
<path fill-rule="evenodd" clip-rule="evenodd" d="M30.3445 12.1723C29.7881 12.1723 29.3371 12.6233 29.3371 13.1797V13.8586C29.3371 14.415 29.7881 14.866 30.3445 14.866H31.2824V15.8389H37.7174V14.866H38.6556C39.212 14.866 39.663 14.415 39.663 13.8586V13.1797C39.663 12.6233 39.212 12.1723 38.6556 12.1723H30.3445Z" fill="#00497A"/>
</g>
<path d="M99.9091 36.8636C99.9091 39.4015 99.428 41.5606 98.4659 43.3409C97.5114 45.1212 96.2083 46.4811 94.5568 47.4205C92.9129 48.3523 91.0644 48.8182 89.0114 48.8182C86.9432 48.8182 85.0871 48.3485 83.4432 47.4091C81.7992 46.4697 80.5 45.1098 79.5455 43.3295C78.5909 41.5492 78.1136 39.3939 78.1136 36.8636C78.1136 34.3258 78.5909 32.1667 79.5455 30.3864C80.5 28.6061 81.7992 27.25 83.4432 26.3182C85.0871 25.3788 86.9432 24.9091 89.0114 24.9091C91.0644 24.9091 92.9129 25.3788 94.5568 26.3182C96.2083 27.25 97.5114 28.6061 98.4659 30.3864C99.428 32.1667 99.9091 34.3258 99.9091 36.8636ZM94.9205 36.8636C94.9205 35.2197 94.6742 33.8333 94.1818 32.7045C93.697 31.5758 93.0114 30.7197 92.125 30.1364C91.2386 29.553 90.2008 29.2614 89.0114 29.2614C87.822 29.2614 86.7841 29.553 85.8977 30.1364C85.0114 30.7197 84.322 31.5758 83.8295 32.7045C83.3447 33.8333 83.1023 35.2197 83.1023 36.8636C83.1023 38.5076 83.3447 39.8939 83.8295 41.0227C84.322 42.1515 85.0114 43.0076 85.8977 43.5909C86.7841 44.1742 87.822 44.4659 89.0114 44.4659C90.2008 44.4659 91.2386 44.1742 92.125 43.5909C93.0114 43.0076 93.697 42.1515 94.1818 41.0227C94.6742 39.8939 94.9205 38.5076 94.9205 36.8636ZM103.554 48.5V25.2273H112.736C114.493 25.2273 115.993 25.5417 117.236 26.1705C118.486 26.7917 119.437 27.6742 120.088 28.8182C120.747 29.9545 121.077 31.2917 121.077 32.8295C121.077 34.375 120.743 35.7045 120.077 36.8182C119.41 37.9242 118.444 38.7727 117.179 39.3636C115.921 39.9545 114.399 40.25 112.611 40.25H106.463V36.2955H111.815C112.755 36.2955 113.535 36.1667 114.156 35.9091C114.777 35.6515 115.24 35.2652 115.543 34.75C115.853 34.2348 116.009 33.5947 116.009 32.8295C116.009 32.0568 115.853 31.4053 115.543 30.875C115.24 30.3447 114.774 29.9432 114.145 29.6705C113.524 29.3902 112.74 29.25 111.793 29.25H108.474V48.5H103.554ZM116.122 37.9091L121.906 48.5H116.474L110.815 37.9091H116.122ZM139.986 32.75C139.827 32.197 139.603 31.7083 139.315 31.2841C139.027 30.8523 138.675 30.4886 138.259 30.1932C137.849 29.8902 137.38 29.6591 136.849 29.5C136.327 29.3409 135.747 29.2614 135.111 29.2614C133.921 29.2614 132.876 29.5568 131.974 30.1477C131.08 30.7386 130.384 31.5985 129.884 32.7273C129.384 33.8485 129.134 35.2197 129.134 36.8409C129.134 38.4621 129.38 39.8409 129.872 40.9773C130.365 42.1136 131.062 42.9811 131.963 43.5795C132.865 44.1705 133.929 44.4659 135.156 44.4659C136.27 44.4659 137.221 44.2689 138.009 43.875C138.804 43.4735 139.41 42.9091 139.827 42.1818C140.251 41.4545 140.463 40.5947 140.463 39.6023L141.463 39.75H135.463V36.0455H145.202V38.9773C145.202 41.0227 144.77 42.7803 143.906 44.25C143.043 45.7121 141.853 46.8409 140.338 47.6364C138.823 48.4242 137.088 48.8182 135.134 48.8182C132.952 48.8182 131.035 48.3371 129.384 47.375C127.732 46.4053 126.444 45.0303 125.52 43.25C124.603 41.4621 124.145 39.3409 124.145 36.8864C124.145 35 124.418 33.3182 124.963 31.8409C125.516 30.3561 126.289 29.0985 127.281 28.0682C128.274 27.0379 129.429 26.2538 130.747 25.7159C132.065 25.178 133.493 24.9091 135.031 24.9091C136.349 24.9091 137.577 25.1023 138.713 25.4886C139.849 25.8674 140.857 26.4053 141.736 27.1023C142.622 27.7992 143.346 28.6288 143.906 29.5909C144.467 30.5455 144.827 31.5985 144.986 32.75H139.986ZM152.19 48.5H146.918L154.952 25.2273H161.293L169.315 48.5H164.043L158.213 30.5455H158.031L152.19 48.5ZM151.861 39.3523H164.315V43.1932H151.861V39.3523ZM191.582 25.2273V48.5H187.332L177.207 33.8523H177.037V48.5H172.116V25.2273H176.435L186.48 39.8636H186.685V25.2273H191.582ZM200.568 25.2273V48.5H195.648V25.2273H200.568ZM256.651 48.5H251.379L259.413 25.2273H265.754L273.776 48.5H268.504L262.674 30.5455H262.492L256.651 48.5ZM256.322 39.3523H268.776V43.1932H256.322V39.3523Z" fill="#00497A"/>
<path d="M204.699 48.5V45.032L218.49 25.6811H204.672V20.8636H225.831V24.3317L212.026 43.6825H225.858V48.5H204.699ZM229.823 48.5V45.397L242.162 28.0831H229.799V23.7727H248.731V26.8757L236.379 44.1896H248.755V48.5H229.823Z" fill="#F19413"/>
<defs>
<clipPath id="clip0_43_3520">
<rect width="68" height="68" fill="white" transform="translate(0.5 0.5)"/>
</clipPath>
</defs>
</svg>
