<svg width="275" height="64" viewBox="0 0 275 64" fill="none" xmlns="http://www.w3.org/2000/svg">
<path d="M74.6011 46.879C72.2753 46.879 70.1375 46.3387 68.1875 45.258C66.2611 44.1773 64.7223 42.6738 63.5712 40.7474C62.4435 38.7974 61.8797 36.6126 61.8797 34.1928C61.8797 31.7731 62.4435 29.6 63.5712 27.6736C64.7223 25.7471 66.2611 24.2436 68.1875 23.1629C70.1375 22.0822 72.2753 21.5419 74.6011 21.5419C76.9269 21.5419 79.053 22.0822 80.9794 23.1629C82.9293 24.2436 84.4564 25.7471 85.5605 27.6736C86.6882 29.6 87.252 31.7731 87.252 34.1928C87.252 36.6126 86.6882 38.7974 85.5605 40.7474C84.4329 42.6738 82.9058 44.1773 80.9794 45.258C79.053 46.3387 76.9269 46.879 74.6011 46.879ZM74.6011 41.3817C76.5745 41.3817 78.1485 40.7239 79.3232 39.4083C80.5213 38.0927 81.1204 36.3542 81.1204 34.1928C81.1204 32.008 80.5213 30.2695 79.3232 28.9774C78.1485 27.6618 76.5745 27.004 74.6011 27.004C72.6042 27.004 71.0067 27.6501 69.8086 28.9422C68.6339 30.2343 68.0466 31.9845 68.0466 34.1928C68.0466 36.3777 68.6339 38.1279 69.8086 39.4435C71.0067 40.7356 72.6042 41.3817 74.6011 41.3817ZM103.22 46.6323L98.0752 37.2939H96.6304V46.6323H90.6044V21.8943H100.718C102.668 21.8943 104.324 22.2349 105.687 22.9162C107.073 23.5975 108.107 24.5372 108.788 25.7354C109.469 26.91 109.81 28.2256 109.81 29.6822C109.81 31.3267 109.34 32.795 108.4 34.0871C107.484 35.3792 106.122 36.2954 104.313 36.8358L110.021 46.6323H103.22ZM96.6304 33.0299H100.366C101.47 33.0299 102.292 32.7598 102.833 32.2194C103.396 31.6791 103.678 30.9156 103.678 29.9289C103.678 28.9892 103.396 28.2491 102.833 27.7088C102.292 27.1685 101.47 26.8983 100.366 26.8983H96.6304V33.0299ZM130.014 29.7174C129.568 28.8952 128.922 28.2726 128.076 27.8497C127.254 27.4034 126.279 27.1802 125.151 27.1802C123.201 27.1802 121.639 27.8263 120.464 29.1184C119.29 30.387 118.702 32.0902 118.702 34.2281C118.702 36.5069 119.313 38.2923 120.535 39.5845C121.78 40.8531 123.483 41.4874 125.644 41.4874C127.125 41.4874 128.37 41.1115 129.38 40.3597C130.414 39.6079 131.165 38.5273 131.635 37.1177H123.988V32.6775H137.097V38.2806C136.651 39.7841 135.887 41.182 134.807 42.4741C133.75 43.7662 132.399 44.8116 130.754 45.6104C129.11 46.4091 127.254 46.8085 125.186 46.8085C122.743 46.8085 120.558 46.2799 118.632 45.2227C116.729 44.1421 115.237 42.6503 114.156 40.7474C113.099 38.8444 112.571 36.6713 112.571 34.2281C112.571 31.7848 113.099 29.6117 114.156 27.7088C115.237 25.7824 116.729 24.2906 118.632 23.2334C120.535 22.1527 122.708 21.6124 125.151 21.6124C128.111 21.6124 130.601 22.3289 132.622 23.762C134.666 25.1951 136.017 27.1802 136.674 29.7174H130.014ZM155.835 42.2626H146.602L145.122 46.6323H138.814L147.765 21.8943H154.742L163.693 46.6323H157.315L155.835 42.2626ZM154.284 37.611L151.218 28.5545L148.188 37.611H154.284ZM188.548 46.6323H182.522L172.443 31.3737V46.6323H166.417V21.8943H172.443L182.522 37.2234V21.8943H188.548V46.6323ZM198.942 21.8943V46.6323H192.916V21.8943H198.942ZM265.94 42.2626H256.708L255.228 46.6323H248.92L257.871 21.8943H264.848L273.799 46.6323H267.421L265.94 42.2626ZM264.39 37.611L261.324 28.5545L258.294 37.611H264.39Z" fill="#FFFBFF"/>
<path d="M211.334 40.7738H223.972V46.6323H203.216V41.1922L215.77 23.1145H203.216V17.2559H223.972V22.696L211.334 40.7738ZM235.188 41.3905H246.495V46.6323H227.924V41.7649L239.156 25.59H227.924V20.3482H246.495V25.2156L235.188 41.3905Z" fill="#FF7D10"/>
<g filter="url(#filter0_b_511_12436)">
<path d="M0 32.0633C0 19.8897 9.88975 10 22.0633 10V10C34.2136 10 44.0844 19.8708 44.0844 32.0211V32.0211C44.0844 44.1947 34.1946 54.0844 22.0211 54.0844V54.0844C9.87082 54.0844 0 44.2136 0 32.0633V32.0633Z" fill="#FFFBFF"/>
</g>
<g clip-path="url(#clip0_511_12436)">
<path fill-rule="evenodd" clip-rule="evenodd" d="M26.6111 36.9502H19.848L16.5269 39.2915V47.3364H26.6111V43.8678C25.8995 43.6207 25.3886 42.9442 25.3886 42.1484C25.3886 41.3527 25.8995 40.6762 26.6111 40.4291V36.9502Z" fill="#FF7D10"/>
<path fill-rule="evenodd" clip-rule="evenodd" d="M26.5502 26.8662H6.32129V37.2222C6.32129 42.8083 10.8497 47.3367 16.4358 47.3367H26.501C21.0543 47.3101 16.6471 42.8866 16.6471 37.4337V26.8663H26.5502V26.8662Z" fill="#00658F"/>
<path opacity="0.3" d="M16.5867 36.9493C15.2387 36.9493 13.9038 36.6885 12.6583 36.1817C11.4129 35.6749 10.2812 34.9321 9.32797 33.9957C8.37473 33.0593 7.61859 31.9476 7.1027 30.7241C6.58681 29.5006 6.32129 28.1893 6.32129 26.865L16.5867 26.865L16.5867 36.9493Z" fill="white"/>
</g>
<g clip-path="url(#clip1_511_12436)">
<path fill-rule="evenodd" clip-rule="evenodd" d="M16.5866 26.9868H23.3497H26.6709V16.6006H16.5866V20.0988C17.2987 20.3456 17.8099 21.0223 17.8099 21.8183C17.8099 22.6144 17.2987 23.2911 16.5866 23.5379V26.9868Z" fill="#FF7D10"/>
<path fill-rule="evenodd" clip-rule="evenodd" d="M16.6475 37.0713H36.8765V26.7153C36.8765 21.1292 32.3481 16.6008 26.762 16.6008L16.7463 16.6008C22.1653 16.6593 26.5402 21.0704 26.5402 26.5033V37.0707H16.6475V37.0713Z" fill="#00658F"/>
<path opacity="0.3" d="M26.5505 26.9867C27.8986 26.9867 29.2334 27.2475 30.4789 27.7543C31.7244 28.2611 32.856 29.0039 33.8092 29.9403C34.7625 30.8767 35.5186 31.9884 36.0345 33.2119C36.5504 34.4354 36.8159 35.7467 36.8159 37.071L26.5505 37.071L26.5505 26.9867Z" fill="white"/>
</g>
<defs>
<filter id="filter0_b_511_12436" x="-7.15125" y="2.84875" width="58.387" height="58.387" filterUnits="userSpaceOnUse" color-interpolation-filters="sRGB">
<feFlood flood-opacity="0" result="BackgroundImageFix"/>
<feGaussianBlur in="BackgroundImageFix" stdDeviation="3.57563"/>
<feComposite in2="SourceAlpha" operator="in" result="effect1_backgroundBlur_511_12436"/>
<feBlend mode="normal" in="SourceGraphic" in2="effect1_backgroundBlur_511_12436" result="shape"/>
</filter>
<clipPath id="clip0_511_12436">
<rect width="20.2289" height="20.4705" fill="white" transform="translate(6.32129 26.8657)"/>
</clipPath>
<clipPath id="clip1_511_12436">
<rect width="20.2289" height="20.4705" fill="white" transform="translate(36.8765 37.0713) rotate(-180)"/>
</clipPath>
</defs>
</svg>
