<svg width="1024" height="1024" viewBox="0 0 1024 1024" fill="none" xmlns="http://www.w3.org/2000/svg">
<g clip-path="url(#clip0_501_12987)">
<path fill-rule="evenodd" clip-rule="evenodd" d="M674.635 678.651H449.757L339.326 756.5V1024H674.635V908.663C650.98 900.444 634 877.955 634 851.5C634 825.045 650.98 802.556 674.635 794.336V678.651Z" fill="#FF7D10"/>
<path fill-rule="evenodd" clip-rule="evenodd" d="M343.341 343.341H0V687.686C0 873.427 150.573 1024 336.314 1024L672.627 1024C490.768 1024 343.341 876.573 343.341 694.713V343.341Z" fill="#00497A"/>
<path opacity="0.3" d="M344 679C298.825 679 254.093 670.322 212.357 653.461C170.621 636.601 132.699 611.888 100.755 580.734C68.8119 549.58 43.473 512.595 26.1854 471.89C8.89782 431.185 -3.9493e-06 387.558 0 343.5L344 343.5L344 679Z" fill="white"/>
</g>
<g clip-path="url(#clip1_501_12987)">
<path fill-rule="evenodd" clip-rule="evenodd" d="M341.333 347.357L566.212 347.357H676.643V2.00809L341.333 2.00809L341.333 118.326C365.005 126.537 382 149.034 382 175.5C382 201.967 365.005 224.464 341.333 232.674V347.357Z" fill="#FF7D10"/>
<path fill-rule="evenodd" clip-rule="evenodd" d="M343.341 682.667L1015.97 682.667V338.322C1015.97 152.581 865.396 2.00804 679.655 2.00804L345.292 2.00804C526.097 3.24071 672.286 150.192 672.286 331.286V682.659L343.341 682.659V682.667Z" fill="#00497A"/>
<path opacity="0.3" d="M670.5 347C715.872 347 760.799 355.678 802.717 372.538C844.635 389.399 882.723 414.112 914.805 445.266C946.888 476.42 972.337 513.405 989.7 554.11C1007.06 594.814 1016 638.442 1016 682.5L670.5 682.5L670.5 347Z" fill="white"/>
</g>
<defs>
<clipPath id="clip0_501_12987">
<rect width="672.627" height="680.659" fill="white" transform="translate(0 343.341)"/>
</clipPath>
<clipPath id="clip1_501_12987">
<rect width="672.627" height="680.659" fill="white" transform="translate(1015.97 682.667) rotate(-180)"/>
</clipPath>
</defs>
</svg>
