<svg width="275" height="68" viewBox="0 0 275 68" fill="none" xmlns="http://www.w3.org/2000/svg">
<g clip-path="url(#clip0_199_11042)">
<path d="M44.3259 34C44.3259 39.7029 39.7029 44.3259 34 44.3259C28.2971 44.3259 23.6741 39.7029 23.6741 34C23.6741 28.2971 28.2971 23.6741 34 23.6741C39.7029 23.6741 44.3259 28.2971 44.3259 34ZM26.7719 34C26.7719 37.992 30.008 41.2281 34 41.2281C37.992 41.2281 41.2281 37.992 41.2281 34C41.2281 30.008 37.992 26.7719 34 26.7719C30.008 26.7719 26.7719 30.008 26.7719 34Z" fill="#F19413"/>
<path d="M50.7391 32.5355C52.0598 32.4199 53.0519 31.2501 52.7726 29.9541C51.938 26.0813 49.9202 22.54 46.9697 19.8379C43.426 16.5925 38.7944 14.7936 33.9891 14.7963C29.1839 14.7989 24.5542 16.603 21.0142 19.8524C18.0667 22.5578 16.0529 26.1013 15.2226 29.975C14.9448 31.2713 15.9381 32.4401 17.2589 32.5542C18.5797 32.6682 19.7233 31.6809 20.0549 30.3973C20.7464 27.7206 22.199 25.2815 24.2606 23.3893C26.9156 20.9523 30.3879 19.5992 33.9918 19.5972C37.5957 19.5952 41.0695 20.9444 43.7273 23.3784C45.791 25.2684 47.2462 27.7058 47.9408 30.3817C48.2738 31.6649 49.4184 32.651 50.7391 32.5355Z" fill="white"/>
<path d="M5.43994 30.6001C5.43994 29.4734 6.35328 28.5601 7.47994 28.5601H16.9999C18.1266 28.5601 19.0399 29.4734 19.0399 30.6001C19.0399 31.7267 18.1266 32.6401 16.9999 32.6401H7.47994C6.35328 32.6401 5.43994 31.7267 5.43994 30.6001Z" fill="white"/>
<path fill-rule="evenodd" clip-rule="evenodd" d="M15.2383 38.1134C14.959 36.8174 15.951 35.6476 17.2717 35.532C18.5924 35.4165 19.737 36.4026 20.0701 37.6858C20.7674 40.3726 22.2316 42.8186 24.3081 44.7115C26.98 47.1472 30.4702 48.4888 34.0855 48.4701C37.7009 48.4514 41.177 47.0737 43.8235 44.6105C45.8803 42.6962 47.3192 40.2351 47.9886 37.5413C48.3084 36.2547 49.4427 35.2568 50.7646 35.3587C50.7908 35.3607 50.8168 35.3631 50.8428 35.366C50.8946 35.362 50.9471 35.36 51 35.36H59.1599C60.2866 35.36 61.2 36.2734 61.2 37.4C61.2 38.5267 60.2866 39.44 59.16 39.44H52.4479C51.4858 42.7415 49.6471 45.749 47.0944 48.1248C43.5657 51.4091 38.9309 53.246 34.1104 53.271C29.2899 53.2959 24.6363 51.507 21.0738 48.2595C18.1059 45.554 16.076 42.0009 15.2383 38.1134Z" fill="white"/>
<path fill-rule="evenodd" clip-rule="evenodd" d="M29.8446 11.6722C29.2882 11.6722 28.8372 12.1233 28.8372 12.6796V13.3586C28.8372 13.9149 29.2882 14.366 29.8446 14.366H30.7825V15.3388H37.2175V14.366H38.1557C38.7121 14.366 39.1631 13.9149 39.1631 13.3586V12.6796C39.1631 12.1233 38.7121 11.6722 38.1557 11.6722H29.8446Z" fill="white"/>
</g>
<path d="M99.4091 36.3636C99.4091 38.9015 98.928 41.0606 97.9659 42.8409C97.0114 44.6212 95.7083 45.9811 94.0568 46.9205C92.4129 47.8523 90.5644 48.3182 88.5114 48.3182C86.4432 48.3182 84.5871 47.8485 82.9432 46.9091C81.2992 45.9697 80 44.6098 79.0455 42.8295C78.0909 41.0492 77.6136 38.8939 77.6136 36.3636C77.6136 33.8258 78.0909 31.6667 79.0455 29.8864C80 28.1061 81.2992 26.75 82.9432 25.8182C84.5871 24.8788 86.4432 24.4091 88.5114 24.4091C90.5644 24.4091 92.4129 24.8788 94.0568 25.8182C95.7083 26.75 97.0114 28.1061 97.9659 29.8864C98.928 31.6667 99.4091 33.8258 99.4091 36.3636ZM94.4205 36.3636C94.4205 34.7197 94.1742 33.3333 93.6818 32.2045C93.197 31.0758 92.5114 30.2197 91.625 29.6364C90.7386 29.053 89.7008 28.7614 88.5114 28.7614C87.322 28.7614 86.2841 29.053 85.3977 29.6364C84.5114 30.2197 83.822 31.0758 83.3295 32.2045C82.8447 33.3333 82.6023 34.7197 82.6023 36.3636C82.6023 38.0076 82.8447 39.3939 83.3295 40.5227C83.822 41.6515 84.5114 42.5076 85.3977 43.0909C86.2841 43.6742 87.322 43.9659 88.5114 43.9659C89.7008 43.9659 90.7386 43.6742 91.625 43.0909C92.5114 42.5076 93.197 41.6515 93.6818 40.5227C94.1742 39.3939 94.4205 38.0076 94.4205 36.3636ZM103.054 48V24.7273H112.236C113.993 24.7273 115.493 25.0417 116.736 25.6705C117.986 26.2917 118.937 27.1742 119.588 28.3182C120.247 29.4545 120.577 30.7917 120.577 32.3295C120.577 33.875 120.243 35.2045 119.577 36.3182C118.91 37.4242 117.944 38.2727 116.679 38.8636C115.421 39.4545 113.899 39.75 112.111 39.75H105.963V35.7955H111.315C112.255 35.7955 113.035 35.6667 113.656 35.4091C114.277 35.1515 114.74 34.7652 115.043 34.25C115.353 33.7348 115.509 33.0947 115.509 32.3295C115.509 31.5568 115.353 30.9053 115.043 30.375C114.74 29.8447 114.274 29.4432 113.645 29.1705C113.024 28.8902 112.24 28.75 111.293 28.75H107.974V48H103.054ZM115.622 37.4091L121.406 48H115.974L110.315 37.4091H115.622ZM139.486 32.25C139.327 31.697 139.103 31.2083 138.815 30.7841C138.527 30.3523 138.175 29.9886 137.759 29.6932C137.349 29.3902 136.88 29.1591 136.349 29C135.827 28.8409 135.247 28.7614 134.611 28.7614C133.421 28.7614 132.376 29.0568 131.474 29.6477C130.58 30.2386 129.884 31.0985 129.384 32.2273C128.884 33.3485 128.634 34.7197 128.634 36.3409C128.634 37.9621 128.88 39.3409 129.372 40.4773C129.865 41.6136 130.562 42.4811 131.463 43.0795C132.365 43.6705 133.429 43.9659 134.656 43.9659C135.77 43.9659 136.721 43.7689 137.509 43.375C138.304 42.9735 138.91 42.4091 139.327 41.6818C139.751 40.9545 139.963 40.0947 139.963 39.1023L140.963 39.25H134.963V35.5455H144.702V38.4773C144.702 40.5227 144.27 42.2803 143.406 43.75C142.543 45.2121 141.353 46.3409 139.838 47.1364C138.323 47.9242 136.588 48.3182 134.634 48.3182C132.452 48.3182 130.535 47.8371 128.884 46.875C127.232 45.9053 125.944 44.5303 125.02 42.75C124.103 40.9621 123.645 38.8409 123.645 36.3864C123.645 34.5 123.918 32.8182 124.463 31.3409C125.016 29.8561 125.789 28.5985 126.781 27.5682C127.774 26.5379 128.929 25.7538 130.247 25.2159C131.565 24.678 132.993 24.4091 134.531 24.4091C135.849 24.4091 137.077 24.6023 138.213 24.9886C139.349 25.3674 140.357 25.9053 141.236 26.6023C142.122 27.2992 142.846 28.1288 143.406 29.0909C143.967 30.0455 144.327 31.0985 144.486 32.25H139.486ZM151.69 48H146.418L154.452 24.7273H160.793L168.815 48H163.543L157.713 30.0455H157.531L151.69 48ZM151.361 38.8523H163.815V42.6932H151.361V38.8523ZM191.082 24.7273V48H186.832L176.707 33.3523H176.537V48H171.616V24.7273H175.935L185.98 39.3636H186.185V24.7273H191.082ZM200.068 24.7273V48H195.148V24.7273H200.068ZM256.151 48H250.879L258.913 24.7273H265.254L273.276 48H268.004L262.174 30.0455H261.992L256.151 48ZM255.822 38.8523H268.276V42.6932H255.822V38.8523Z" fill="white"/>
<path d="M204.199 48V44.532L217.99 25.1811H204.172V20.3636H225.331V23.8317L211.526 43.1825H225.358V48H204.199ZM229.323 48V44.897L241.662 27.5831H229.299V23.2727H248.231V26.3757L235.879 43.6896H248.255V48H229.323Z" fill="#F19413"/>
<defs>
<clipPath id="clip0_199_11042">
<rect width="68" height="68" fill="white"/>
</clipPath>
</defs>
</svg>
