<svg width="45" height="45" viewBox="0 0 45 45" fill="none" xmlns="http://www.w3.org/2000/svg">
<g filter="url(#filter0_b_545_12033)">
<path d="M-9.15527e-05 22.0634C-9.15527e-05 9.88987 9.88966 0.00012207 22.0632 0.00012207C34.2135 0.00012207 44.0843 9.87094 44.0843 22.0212C44.0843 34.1948 34.1946 44.0845 22.021 44.0845C9.87072 44.0845 -9.15527e-05 34.2137 -9.15527e-05 22.0634Z" fill="#FEFEFF"/>
</g>
<g clip-path="url(#clip0_545_12033)">
<path fill-rule="evenodd" clip-rule="evenodd" d="M26.611 26.9506H19.8479L16.5268 29.2918V37.3368H26.611V33.8681C25.8994 33.621 25.3885 32.9446 25.3885 32.1488C25.3885 31.353 25.8994 30.6766 26.611 30.4295V26.9506Z" fill="#FF7D10"/>
<path fill-rule="evenodd" clip-rule="evenodd" d="M26.5506 16.8667H6.32162V27.2227C6.32162 32.8088 10.85 37.3372 16.4361 37.3372H26.5013C21.0546 37.3106 16.6475 32.8871 16.6475 27.4342V16.8668H26.5506V16.8667Z" fill="#00497A"/>
<path opacity="0.3" d="M16.587 26.9497C15.2389 26.9497 13.904 26.6889 12.6586 26.1821C11.4131 25.6753 10.2815 24.9325 9.32824 23.9961C8.37501 23.0597 7.61886 21.948 7.10297 20.7245C6.58709 19.501 6.32156 18.1897 6.32156 16.8654L16.587 16.8654V26.9497Z" fill="white"/>
</g>
<g clip-path="url(#clip1_545_12033)">
<path fill-rule="evenodd" clip-rule="evenodd" d="M16.5864 16.9868H23.3495H26.6707V6.60061L16.5864 6.60061V10.0988C17.2985 10.3456 17.8097 11.0223 17.8097 11.8183C17.8097 12.6144 17.2985 13.2911 16.5864 13.5379V16.9868Z" fill="#FF7D10"/>
<path fill-rule="evenodd" clip-rule="evenodd" d="M16.6469 27.0712L36.8759 27.0712V16.7152C36.8759 11.1291 32.3475 6.60068 26.7614 6.60068L16.7457 6.60068C22.1647 6.65921 26.5396 11.0703 26.5396 16.5032V27.0706L16.6469 27.0706V27.0712Z" fill="#00497A"/>
<path opacity="0.3" d="M26.55 16.9868C27.8981 16.9868 29.233 17.2477 30.4784 17.7545C31.7239 18.2612 32.8555 19.004 33.8088 19.9405C34.762 20.8769 35.5182 21.9885 36.0341 23.212C36.5499 24.4355 36.8155 25.7468 36.8155 27.0711L26.55 27.0711V16.9868Z" fill="white"/>
</g>
<defs>
<filter id="filter0_b_545_12033" x="-7.15135" y="-7.15113" width="58.3869" height="58.3869" filterUnits="userSpaceOnUse" color-interpolation-filters="sRGB">
<feFlood flood-opacity="0" result="BackgroundImageFix"/>
<feGaussianBlur in="BackgroundImageFix" stdDeviation="3.57563"/>
<feComposite in2="SourceAlpha" operator="in" result="effect1_backgroundBlur_545_12033"/>
<feBlend mode="normal" in="SourceGraphic" in2="effect1_backgroundBlur_545_12033" result="shape"/>
</filter>
<clipPath id="clip0_545_12033">
<rect width="20.2289" height="20.4705" fill="white" transform="translate(6.32138 16.8661)"/>
</clipPath>
<clipPath id="clip1_545_12033">
<rect width="20.2289" height="20.4705" fill="white" transform="translate(36.8761 27.0713) rotate(-180)"/>
</clipPath>
</defs>
</svg>
