<svg width="3003" height="670" viewBox="0 0 3003 670" fill="none" xmlns="http://www.w3.org/2000/svg">
<path d="M869.281 493.634C844.442 493.634 821.61 487.864 800.786 476.322C780.212 464.781 763.778 448.724 751.484 428.15C739.441 407.325 733.419 383.992 733.419 358.149C733.419 332.307 739.441 309.099 751.484 288.525C763.778 267.951 780.212 251.894 800.786 240.352C821.61 228.811 844.442 223.04 869.281 223.04C894.12 223.04 916.826 228.811 937.4 240.352C958.225 251.894 974.533 267.951 986.325 288.525C998.368 309.099 1004.39 332.307 1004.39 358.149C1004.39 383.992 998.368 407.325 986.325 428.15C974.282 448.724 957.974 464.781 937.4 476.322C916.826 487.864 894.12 493.634 869.281 493.634ZM869.281 434.924C890.357 434.924 907.167 427.899 919.712 413.849C932.507 399.798 938.905 381.232 938.905 358.149C938.905 334.816 932.507 316.249 919.712 302.45C907.167 288.399 890.357 281.374 869.281 281.374C847.955 281.374 830.894 288.274 818.098 302.073C805.553 315.873 799.28 334.565 799.28 358.149C799.28 381.483 805.553 400.175 818.098 414.225C830.894 428.024 847.955 434.924 869.281 434.924ZM1174.93 491L1119.98 391.268H1104.55V491H1040.19V226.804H1148.2C1169.03 226.804 1186.72 230.442 1201.27 237.718C1216.07 244.994 1227.11 255.03 1234.39 267.826C1241.66 280.371 1245.3 294.421 1245.3 309.977C1245.3 327.54 1240.28 343.221 1230.25 357.02C1220.46 370.82 1205.91 380.605 1186.59 386.375L1247.56 491H1174.93ZM1104.55 345.73H1144.44C1156.23 345.73 1165.01 342.844 1170.79 337.074C1176.81 331.303 1179.82 323.149 1179.82 312.611C1179.82 302.575 1176.81 294.672 1170.79 288.901C1165.01 283.131 1156.23 280.245 1144.44 280.245H1104.55V345.73ZM1461.08 310.353C1456.31 301.572 1449.41 294.923 1440.38 290.407C1431.6 285.64 1421.19 283.256 1409.14 283.256C1388.32 283.256 1371.63 290.156 1359.09 303.955C1346.54 317.504 1340.27 335.694 1340.27 358.526C1340.27 382.863 1346.79 401.931 1359.84 415.73C1373.14 429.279 1391.33 436.053 1414.41 436.053C1430.22 436.053 1443.52 432.039 1454.3 424.01C1465.34 415.981 1473.37 404.44 1478.39 389.386H1396.72V341.966H1536.73V401.806C1531.96 417.863 1523.8 432.792 1512.26 446.591C1500.97 460.39 1486.55 471.555 1468.98 480.086C1451.42 488.616 1431.6 492.882 1409.52 492.882C1383.43 492.882 1360.09 487.237 1339.52 475.946C1319.2 464.405 1303.26 448.473 1291.72 428.15C1280.43 407.827 1274.79 384.619 1274.79 358.526C1274.79 332.432 1280.43 309.224 1291.72 288.901C1303.26 268.328 1319.2 252.395 1339.52 241.105C1359.84 229.564 1383.05 223.793 1409.14 223.793C1440.76 223.793 1467.35 231.445 1488.93 246.75C1510.76 262.055 1525.18 283.256 1532.21 310.353H1461.08ZM1736.84 444.333H1638.23L1622.43 491H1555.06L1650.65 226.804H1725.17L1820.76 491H1752.64L1736.84 444.333ZM1720.28 394.655L1687.53 297.934L1655.17 394.655H1720.28ZM2086.2 491H2021.85L1914.21 328.041V491H1849.86V226.804H1914.21L2021.85 390.515V226.804H2086.2V491ZM2197.21 226.804V491H2132.85V226.804H2197.21ZM2912.74 444.333H2814.14L2798.33 491H2730.96L2826.56 226.804H2901.07L2996.67 491H2928.55L2912.74 444.333ZM2896.18 394.655L2863.44 297.934L2831.07 394.655H2896.18Z" fill="#00497A"/>
<path d="M2329.56 428.432H2464.53V491H2242.86V432.901L2376.93 239.835H2242.86V177.267H2464.53V235.366L2329.56 428.432ZM2584.31 435.018H2705.07V491H2506.73V439.017L2626.69 266.273H2506.73V210.292H2705.07V262.275L2584.31 435.018Z" fill="#FF7D10"/>
<g clip-path="url(#clip0_511_12379)">
<path d="M224 418H336V590H169V472.5L224 418Z" fill="#FF7D10"/>
<path fill-rule="evenodd" clip-rule="evenodd" d="M171 251H0V422.5C0 515.008 74.9923 590 167.5 590H335C244.425 590 171 516.575 171 426V251Z" fill="#00497A"/>
<path opacity="0.3" d="M171 418C148.675 418 126.569 413.68 105.944 405.288C85.3185 396.895 66.5778 384.594 50.7918 369.087C35.0059 353.579 22.4838 335.169 13.9405 314.908C5.39718 294.647 0.999998 272.931 1 251L171 251V418Z" fill="white"/>
</g>
<g clip-path="url(#clip1_511_12379)">
<path d="M282 253L170 253L170 81L337 81L337 253H282Z" fill="#FF7D10"/>
<path fill-rule="evenodd" clip-rule="evenodd" d="M335 420H506V248.5C506 155.992 431.008 81 338.5 81L171 81C261.575 81 335 154.425 335 245V420Z" fill="#00497A"/>
<path opacity="0.3" d="M335 253C357.325 253 379.431 257.32 400.056 265.712C420.682 274.105 439.422 286.406 455.208 301.913C470.994 317.421 483.516 335.831 492.06 356.092C500.603 376.353 505 398.069 505 420L335 420V253Z" fill="white"/>
</g>
<defs>
<clipPath id="clip0_511_12379">
<rect width="335" height="339" fill="white" transform="translate(0 251)"/>
</clipPath>
<clipPath id="clip1_511_12379">
<rect width="335" height="339" fill="white" transform="translate(506 420) rotate(-180)"/>
</clipPath>
</defs>
</svg>
