<svg width="166" height="309" viewBox="0 0 166 309" fill="none" xmlns="http://www.w3.org/2000/svg">
<path fill-rule="evenodd" clip-rule="evenodd" d="M26.2821 0.112119C26.2821 4.13703 23.0138 7.39985 18.9823 7.39985C14.9508 7.39985 11.6826 4.13703 11.6826 0.112119C11.6826 0.0746793 11.6829 0.0373058 11.6834 0L0.00292969 0V309H11.6834C11.6829 308.962 11.6826 308.926 11.6826 308.888C11.6826 304.863 14.9508 301.6 18.9823 301.6C23.0138 301.6 26.2821 304.863 26.2821 308.888C26.2821 308.926 26.2819 308.962 26.2812 309H38.1872C38.1866 308.962 38.1863 308.926 38.1863 308.888C38.1863 304.863 41.4546 301.6 45.4861 301.6C49.5176 301.6 52.7859 304.863 52.7859 308.888V308.906L52.7857 308.942L52.7854 308.962L52.785 309H62.8933C62.8933 297.979 71.8432 289.043 82.8834 289.043C93.9236 289.043 102.874 297.979 102.874 309H112.757C112.757 308.962 112.756 308.926 112.756 308.888C112.756 304.863 116.025 301.6 120.056 301.6C124.088 301.6 127.356 304.863 127.356 308.888C127.356 308.926 127.356 308.962 127.355 309H139.261C139.261 308.98 139.261 308.962 139.26 308.942C139.26 308.924 139.26 308.906 139.26 308.888C139.26 304.863 142.528 301.6 146.56 301.6C150.591 301.6 153.86 304.863 153.86 308.888C153.86 308.926 153.859 308.962 153.859 309H165.764V0L153.859 0C153.859 0.0373058 153.86 0.0746793 153.86 0.112119C153.86 4.13703 150.591 7.39985 146.56 7.39985C142.528 7.39985 139.26 4.13703 139.26 0.112119C139.26 0.0746793 139.26 0.0373058 139.261 0L127.355 0C127.356 0.0373058 127.356 0.0746793 127.356 0.112119C127.356 4.13703 124.088 7.39985 120.056 7.39985C116.025 7.39985 112.756 4.13703 112.756 0.112119C112.756 0.0746793 112.757 0.0373058 112.757 0L102.874 0C102.874 11.022 93.9236 19.9572 82.8834 19.9572C71.8432 19.9572 62.8933 11.022 62.8933 0L52.785 0C52.7857 0.0373058 52.7859 0.0746793 52.7859 0.112119C52.7859 4.13703 49.5176 7.39985 45.4861 7.39985C41.4546 7.39985 38.1863 4.13703 38.1863 0.112119C38.1863 0.0746793 38.1866 0.0373058 38.1872 0L26.2812 0C26.2819 0.0373058 26.2821 0.0746793 26.2821 0.112119Z" fill="#73777F" fill-opacity="0.08"/>
</svg>
