<svg width="165" height="300" viewBox="0 0 165 300" fill="none" xmlns="http://www.w3.org/2000/svg">
<path fill-rule="evenodd" clip-rule="evenodd" d="M26.1585 0.108853C26.1585 4.01654 22.9053 7.18432 18.8923 7.18432C14.8792 7.18432 11.626 4.01654 11.626 0.108853C11.626 0.0725042 11.6263 0.0362192 11.6269 0H0V300H11.6269C11.6263 299.963 11.626 299.928 11.626 299.891C11.626 295.983 14.8792 292.816 18.8923 292.816C22.9053 292.816 26.1585 295.983 26.1585 299.891C26.1585 299.928 26.1583 299.963 26.1576 300H38.009C38.0084 299.963 38.0081 299.928 38.0081 299.891C38.0081 295.983 41.2614 292.816 45.2744 292.816C49.2874 292.816 52.5406 295.983 52.5406 299.891V299.909L52.5404 299.943L52.5402 299.963L52.5398 300H62.6016C62.6016 289.3 71.5105 280.624 82.5 280.624C93.4895 280.624 102.398 289.3 102.398 300H112.237C112.236 299.963 112.236 299.928 112.236 299.891C112.236 295.983 115.489 292.816 119.502 292.816C123.515 292.816 126.768 295.983 126.768 299.891L126.768 299.931C126.768 299.954 126.768 299.976 126.767 300H138.619L138.618 299.943C138.618 299.927 138.618 299.911 138.618 299.894V299.891C138.618 295.983 141.871 292.816 145.884 292.816C149.897 292.816 153.15 295.983 153.15 299.891C153.15 299.928 153.15 299.963 153.15 300H165V0H153.15C153.15 0.0362192 153.15 0.0725042 153.15 0.108853C153.15 4.01654 149.897 7.18432 145.884 7.18432C141.871 7.18432 138.618 4.01654 138.618 0.108853C138.618 0.0725042 138.618 0.0362192 138.619 0H126.767C126.768 0.0362192 126.768 0.0725042 126.768 0.108853C126.768 4.01654 123.515 7.18432 119.502 7.18432C115.489 7.18432 112.236 4.01654 112.236 0.108853C112.236 0.0725042 112.236 0.0362192 112.237 0H102.398C102.398 10.701 93.4895 19.3759 82.5 19.3759C71.5105 19.3759 62.6016 10.701 62.6016 0H52.5398C52.5404 0.0362192 52.5406 0.0725042 52.5406 0.108853C52.5406 4.01654 49.2874 7.18432 45.2744 7.18432C41.2614 7.18432 38.0081 4.01654 38.0081 0.108853C38.0081 0.0725042 38.0084 0.0362192 38.009 0H26.1576C26.1583 0.0362192 26.1585 0.0725042 26.1585 0.108853ZM152 190.5C152 191.328 151.328 192 150.5 192C149.672 192 149 191.328 149 190.5C149 189.672 149.672 189 150.5 189C151.328 189 152 189.672 152 190.5ZM141.5 192C142.328 192 143 191.328 143 190.5C143 189.672 142.328 189 141.5 189C140.672 189 140 189.672 140 190.5C140 191.328 140.672 192 141.5 192ZM134 190.5C134 191.328 133.328 192 132.5 192C131.672 192 131 191.328 131 190.5C131 189.672 131.672 189 132.5 189C133.328 189 134 189.672 134 190.5ZM123.5 192C124.328 192 125 191.328 125 190.5C125 189.672 124.328 189 123.5 189C122.672 189 122 189.672 122 190.5C122 191.328 122.672 192 123.5 192ZM116 190.5C116 191.328 115.328 192 114.5 192C113.672 192 113 191.328 113 190.5C113 189.672 113.672 189 114.5 189C115.328 189 116 189.672 116 190.5ZM105.5 192C106.328 192 107 191.328 107 190.5C107 189.672 106.328 189 105.5 189C104.672 189 104 189.672 104 190.5C104 191.328 104.672 192 105.5 192ZM98 190.5C98 191.328 97.3284 192 96.5 192C95.6716 192 95 191.328 95 190.5C95 189.672 95.6716 189 96.5 189C97.3284 189 98 189.672 98 190.5ZM87.5 192C88.3284 192 89 191.328 89 190.5C89 189.672 88.3284 189 87.5 189C86.6716 189 86 189.672 86 190.5C86 191.328 86.6716 192 87.5 192ZM80 190.5C80 191.328 79.3284 192 78.5 192C77.6716 192 77 191.328 77 190.5C77 189.672 77.6716 189 78.5 189C79.3284 189 80 189.672 80 190.5ZM69.5 192C70.3284 192 71 191.328 71 190.5C71 189.672 70.3284 189 69.5 189C68.6716 189 68 189.672 68 190.5C68 191.328 68.6716 192 69.5 192ZM62 190.5C62 191.328 61.3284 192 60.5 192C59.6716 192 59 191.328 59 190.5C59 189.672 59.6716 189 60.5 189C61.3284 189 62 189.672 62 190.5ZM51.5 192C52.3284 192 53 191.328 53 190.5C53 189.672 52.3284 189 51.5 189C50.6716 189 50 189.672 50 190.5C50 191.328 50.6716 192 51.5 192ZM44 190.5C44 191.328 43.3284 192 42.5 192C41.6716 192 41 191.328 41 190.5C41 189.672 41.6716 189 42.5 189C43.3284 189 44 189.672 44 190.5ZM33.5 192C34.3284 192 35 191.328 35 190.5C35 189.672 34.3284 189 33.5 189C32.6716 189 32 189.672 32 190.5C32 191.328 32.6716 192 33.5 192ZM26 190.5C26 191.328 25.3284 192 24.5 192C23.6716 192 23 191.328 23 190.5C23 189.672 23.6716 189 24.5 189C25.3284 189 26 189.672 26 190.5ZM15.5 192C16.3284 192 17 191.328 17 190.5C17 189.672 16.3284 189 15.5 189C14.6716 189 14 189.672 14 190.5C14 191.328 14.6716 192 15.5 192Z" fill="#73777F" fill-opacity="0.08"/>
</svg>
