<svg width="200" height="300" viewBox="0 0 200 300" fill="none" xmlns="http://www.w3.org/2000/svg">
<path fill-rule="evenodd" clip-rule="evenodd" d="M31.7073 0.108853C31.7073 4.01654 27.764 7.18432 22.8997 7.18432C18.0354 7.18432 14.0921 4.01654 14.0921 0.108853C14.0921 0.0725042 14.0925 0.0362192 14.0932 0L0 0L0 300H14.0932C14.0925 299.963 14.0921 299.928 14.0921 299.891C14.0921 295.983 18.0354 292.816 22.8997 292.816C27.764 292.816 31.7073 295.983 31.7073 299.891C31.7073 299.928 31.707 299.963 31.7062 300H46.0715C46.0707 299.963 46.0705 299.928 46.0705 299.891C46.0705 295.983 50.0138 292.816 54.878 292.816C59.7423 292.816 63.6856 295.983 63.6856 299.891V299.909L63.6854 299.943L63.6851 299.963L63.6846 300H75.8808C75.8808 289.3 86.6794 280.624 100 280.624C113.321 280.624 124.119 289.3 124.119 300H136.044C136.044 299.963 136.043 299.928 136.043 299.891C136.043 295.983 139.987 292.816 144.851 292.816C149.715 292.816 153.659 295.983 153.659 299.891C153.659 299.928 153.658 299.963 153.657 300H168.023C168.023 299.98 168.022 299.963 168.022 299.943C168.022 299.926 168.022 299.909 168.022 299.891C168.022 295.983 171.965 292.816 176.829 292.816C181.693 292.816 185.637 295.983 185.637 299.891C185.637 299.928 185.637 299.963 185.636 300H200V0L185.636 0C185.637 0.0362192 185.637 0.0725042 185.637 0.108853C185.637 4.01654 181.693 7.18432 176.829 7.18432C171.965 7.18432 168.022 4.01654 168.022 0.108853C168.022 0.0725042 168.022 0.0362192 168.023 0L153.657 0C153.658 0.0362192 153.659 0.0725042 153.659 0.108853C153.659 4.01654 149.715 7.18432 144.851 7.18432C139.987 7.18432 136.043 4.01654 136.043 0.108853C136.043 0.0725042 136.044 0.0362192 136.044 0L124.119 0C124.119 10.701 113.321 19.3759 100 19.3759C86.6794 19.3759 75.8808 10.701 75.8808 0L63.6846 0C63.6854 0.0362192 63.6856 0.0725042 63.6856 0.108853C63.6856 4.01654 59.7423 7.18432 54.878 7.18432C50.0138 7.18432 46.0705 4.01654 46.0705 0.108853C46.0705 0.0725042 46.0707 0.0362192 46.0715 0L31.7062 0C31.707 0.0362192 31.7073 0.0725042 31.7073 0.108853Z" fill="#73777F" fill-opacity="0.08"/>
</svg>
