<svg width="94" height="94" viewBox="0 0 94 94" fill="none" xmlns="http://www.w3.org/2000/svg">
<path fill-rule="evenodd" clip-rule="evenodd" d="M5.69702 5.69702H88.3031V88.3031H5.69702V40.5283V5.69702Z" fill="#016FD0"/>
<path fill-rule="evenodd" clip-rule="evenodd" d="M21.7141 63.245V50.2559H35.4352L36.905 52.1872L38.4176 50.2587H88.3031V62.3278C88.3031 62.3278 87.0184 63.1994 85.503 63.1994H57.9211L56.269 61.1343V63.1994H50.8085V59.7129C50.8085 59.7129 50.0736 60.217 48.4699 60.217H46.6326V63.1994H38.372L36.905 61.2254L35.3896 63.1994L21.7141 63.245V63.245ZM5.69702 40.5283L8.77339 33.3217H14.1399L15.8861 37.3637V33.3245H22.5401L23.5941 36.2613L24.6053 33.3245H54.4802V34.7915C54.4802 34.7915 56.0411 33.3245 58.6105 33.3245L68.2953 33.3701L70.0386 37.3637V33.3245H75.5931L77.1028 35.6175V33.3274H82.797V46.3164H77.1513L75.6814 44.0206V46.3136H67.5148L66.6888 44.2484H64.4841L63.658 46.3136H58.1034C55.9044 46.3136 54.4802 44.8894 54.4802 44.8894V46.3136H46.1284L44.4763 44.2484V46.3136H13.3594L12.5334 44.2484H10.3287L9.5026 46.3136H5.69702V40.5312V40.5283Z" fill="white"/>
<path fill-rule="evenodd" clip-rule="evenodd" d="M9.8729 34.8855L5.69702 44.6131H8.40308L9.18357 42.6875H13.6842L14.4618 44.6131H17.2619L13.086 34.8855H9.8729ZM11.4339 37.1358L12.8097 40.5283H10.0581L11.4339 37.133V37.1358ZM17.5382 44.6131V34.8855L21.3922 34.9311L23.6425 41.1693L25.8444 34.8855H29.6528V44.6131H27.2202V37.4577L24.6508 44.6159H22.5401L19.9224 37.4577V44.6159L17.5382 44.6131ZM31.3049 44.6131V34.8855H39.2436V37.0874H33.7831V38.7395H39.1069V40.7591H33.7831V42.5023H39.2436V44.6131H31.3049ZM40.6194 34.8855V44.6131H43.0521V41.1721H44.0633L46.9545 44.6131H49.9368L46.7237 41.0354C47.463 40.9671 48.1489 40.6211 48.6431 40.0671C49.1373 39.5131 49.4032 38.7924 49.3871 38.0502C49.3871 35.985 47.7805 34.8855 45.9917 34.8855H40.6194V34.8855ZM43.0521 37.0874H45.8065C46.4959 37.0874 46.9545 37.5916 46.9545 38.0957C46.9545 38.7395 46.3107 39.107 45.8521 39.107H43.0521V37.0874ZM52.9192 44.6131H50.441V34.8855H52.9192V44.6131ZM58.7928 44.6131H58.243C55.6737 44.6131 54.0671 42.5935 54.0671 39.7963C54.0671 36.9478 55.6281 34.8855 58.8868 34.8855H61.5473V37.1785H58.7472C57.417 37.1785 56.4997 38.2325 56.4997 39.7963C56.4997 41.6763 57.5537 42.4568 59.1147 42.4568H59.7584L58.7956 44.6131H58.7928ZM64.071 34.8855L59.8951 44.6131H62.6012L63.3845 42.6875H67.8823L68.6599 44.6131H71.46L67.2841 34.8855H64.071V34.8855ZM65.632 37.1358L67.0078 40.5283H64.2562L65.632 37.133V37.1358ZM71.6907 44.6131V34.8855H74.7671L78.7122 40.987V34.8855H81.1448V44.6131H78.1596L74.1233 38.3265V44.6131H71.6907ZM23.4117 61.5929V51.8653H31.3049V54.0672H25.8444V55.7193H31.1682V57.7845H25.8415V59.4822H31.3049V61.5929H23.4117ZM62.191 61.5929V51.8653H70.1297V54.0672H64.6692V55.7193H69.993V57.7845H64.6664V59.4822H70.1297V61.5929H62.191ZM31.6268 61.5929L35.4808 56.8217L31.5356 51.8653H34.6091L36.9506 54.9417L39.2892 51.8653H42.226L38.3264 56.7305L42.2288 61.5929H39.1525L36.8566 58.6105L34.6547 61.5929H31.6268ZM42.5023 51.9109V61.6385H44.9805V58.565H47.5498C49.709 58.565 51.3611 57.417 51.3611 55.1696C51.3611 53.3323 50.0736 51.9109 47.8717 51.9109H42.5023V51.9109ZM44.9805 54.0672H47.6865C48.3759 54.0672 48.8829 54.4802 48.8829 55.1696C48.8829 55.8105 48.3759 56.2691 47.6865 56.2691H45.0261V54.0672H44.9805ZM52.415 51.8653V61.5929H54.8476V58.1519H55.856L58.7472 61.5929H61.7324L58.5193 58.0152C59.2581 57.9462 59.9432 57.5999 60.4369 57.046C60.9305 56.4921 61.196 55.7718 61.1798 55.03C61.1798 52.9648 59.5733 51.8653 57.7844 51.8653H52.415V51.8653ZM54.8476 54.0672H57.6021C58.2886 54.0672 58.7472 54.5714 58.7472 55.0784C58.7472 55.7193 58.1063 56.0868 57.6477 56.0868H54.8476V54.0672ZM71.2777 61.5929V59.485H76.1429C76.875 59.485 77.1513 59.1147 77.1513 58.659C77.1513 58.2431 76.8294 57.8329 76.1429 57.8329H73.9382C72.0126 57.8329 70.9558 56.6821 70.9558 54.9388C70.9558 53.3779 71.9186 51.8625 74.7642 51.8625H79.4927L78.4815 54.0672H74.3968C73.6163 54.0672 73.3884 54.4802 73.3884 54.8477C73.3884 55.2607 73.6647 55.6737 74.26 55.6737H76.5559C78.6638 55.6737 79.5839 56.8673 79.5839 58.4738C79.5839 60.1715 78.5727 61.5502 76.4164 61.5502L71.2777 61.5929V61.5929ZM80.1792 61.5929V59.485H84.8165C85.5486 59.485 85.8249 59.1147 85.8249 58.659C85.8249 58.2431 85.503 57.8329 84.8165 57.8329H82.8425C80.9141 57.8329 79.8602 56.6821 79.8602 54.9388C79.8602 53.3779 80.823 51.8625 83.6686 51.8625H88.3031L87.2947 54.0672H83.3011C82.5207 54.0672 82.2899 54.4802 82.2899 54.8477C82.2899 55.2607 82.5662 55.6737 83.1644 55.6737H85.2723C87.3859 55.6737 88.3031 56.8673 88.3031 58.4738C88.3031 60.1715 87.2947 61.5502 85.1356 61.5502L80.1792 61.5929V61.5929Z" fill="#016FD0"/>
</svg>
