<svg width="209" height="82" viewBox="0 0 209 82" fill="none" xmlns="http://www.w3.org/2000/svg">
<path d="M29.3829 67.294C43.8765 67.294 55.6259 55.6762 55.6259 41.345C55.6259 27.0138 43.8765 15.396 29.3829 15.396C14.8893 15.396 3.13989 27.0138 3.13989 41.345C3.13989 55.6762 14.8893 67.294 29.3829 67.294Z" fill="white"/>
<path fill-rule="evenodd" clip-rule="evenodd" d="M192.04 24.753V36.9C192.036 38.5856 191.904 40.2684 191.645 41.934L192.243 42.244L193.098 41.599C194.323 42.2489 195.689 42.5898 197.076 42.592C201.149 42.592 203.864 38.887 203.864 35.182C203.864 32.108 201.868 29.249 198.542 29.249C196.932 29.435 195.432 30.149 194.279 31.276V20.954C194.279 20.725 194.279 20.551 194.049 20.551C193.829 20.6286 193.619 20.7323 193.424 20.86C192.48 21.3534 191.494 21.762 190.478 22.081V22.538C191.605 22.846 192.039 22.914 192.039 24.753H192.04ZM194.333 32.109C195.052 31.3555 196.014 30.8802 197.049 30.767C199.275 30.767 201.624 33.304 201.624 36.364C201.624 38.888 200.334 41.854 197.279 41.854C195.692 41.788 194.416 40.538 194.333 38.969V32.096V32.109V32.109ZM97.9429 42.177V41.439H97.4539C96.6529 41.439 96.0279 41.439 96.0279 40.499V29.639C96.0279 29.411 96.0279 29.249 95.8249 29.249C95.6439 29.249 95.4659 29.295 95.3089 29.384C95.1999 29.478 93.5989 30.001 92.2539 30.404V30.861C93.3139 31.424 93.7479 31.585 93.7479 32.834V40.499C93.7479 41.439 93.1779 41.439 92.3899 41.439H91.7249V42.177H94.8469C95.8789 42.177 96.8969 42.164 97.8749 42.164L97.9429 42.177V42.177ZM113.134 41.439H112.619C111.818 41.439 111.193 41.439 111.193 40.499V33.209C111.193 31.009 110.338 29.249 107.908 29.249C106.068 29.3943 104.327 30.1398 102.952 31.371V29.531C102.952 29.303 102.871 29.25 102.789 29.25C101.555 29.76 100.295 30.208 99.0149 30.592V31.129C100.373 31.666 100.672 31.948 100.672 32.995V40.485C100.672 41.425 100.102 41.425 99.3139 41.425H98.7979V42.164H104.92V41.425H104.405C103.604 41.425 102.965 41.425 102.965 40.485V32.122C103.952 31.4178 105.092 30.9578 106.292 30.78C106.982 30.671 107.685 30.88 108.199 31.35C108.712 31.818 108.98 32.494 108.926 33.183V40.499C108.926 41.439 108.356 41.439 107.568 41.439H107.052V42.177H113.175V41.439H113.135H113.134ZM79.0439 42.177C89.1729 42.177 90.8289 35.143 90.8289 32.337C90.8289 27.33 86.7559 22.444 79.3979 22.444H71.0889V23.169C72.3789 23.169 73.7229 23.034 73.7229 25.572V39.29C73.6409 41.21 72.7999 41.263 71.0889 41.438V42.176H74.9179C76.2079 42.176 77.5109 42.163 78.9629 42.163L79.0449 42.176L79.0439 42.177ZM76.4929 23.464C77.0089 23.464 77.5529 23.357 78.7199 23.357C84.2449 23.357 87.6669 27.169 87.6669 32.458C87.6669 36.673 85.6439 41.278 79.5209 41.278C78.1629 41.278 76.5479 41.023 76.5479 38.848V23.45L76.4929 23.463V23.464ZM176.468 42.177V41.439H175.898C175.097 41.439 174.473 41.439 174.473 40.499V20.954C174.473 20.725 174.473 20.551 174.242 20.551C174.022 20.63 173.812 20.733 173.617 20.86C172.674 21.352 171.687 21.761 170.671 22.081V22.538C171.757 22.846 172.191 22.9 172.191 24.739V40.486C172.191 41.426 171.621 41.426 170.834 41.426H170.291V42.164H176.4L176.468 42.177V42.177ZM131.667 42.177V41.439H130.011C129.21 41.439 128.653 41.439 128.653 40.499V33.854C128.66 33.2764 128.875 32.7207 129.259 32.289C129.643 31.8573 130.17 31.5786 130.743 31.504C131.748 31.504 131.748 32.19 132.631 32.19C133.011 32.19 133.373 32.035 133.631 31.76C133.889 31.484 134.019 31.114 133.988 30.74C133.983 30.5345 133.936 30.3321 133.851 30.1448C133.766 29.9576 133.644 29.7893 133.493 29.65C133.34 29.5097 133.162 29.4009 132.967 29.3298C132.773 29.2588 132.566 29.2269 132.359 29.236C130.622 29.236 129.413 31.048 128.707 32.149V29.612C128.707 29.33 128.626 29.25 128.449 29.25C128.273 29.25 127.092 29.988 124.96 30.86V31.277C125.395 31.505 126.44 31.679 126.44 32.552V40.499C126.44 41.439 125.87 41.439 125.082 41.439H124.309V42.177H127.716C128.897 42.177 130.038 42.137 131.613 42.164L131.667 42.177ZM178.165 32.002V39.237C178.075 40.107 178.368 40.973 178.968 41.615C179.568 42.257 180.418 42.613 181.301 42.593C183.338 42.593 184.655 41.6 186.365 40.217V42.5L186.501 42.58C187.836 42.1942 189.197 41.9028 190.574 41.708V41.118H189.434C188.944 41.118 188.632 41.118 188.632 40.581V30.15C188.632 29.84 188.632 29.639 188.402 29.639C188.171 29.639 186.515 29.867 183.935 30.029V30.539C184.967 30.82 186.338 31.129 186.338 31.693V39.304C185.387 40.2183 184.179 40.8183 182.876 41.023C180.392 41.023 180.392 38.593 180.392 37.747V30.457C180.392 29.84 180.392 29.639 180.079 29.639C179.767 29.639 177.364 29.8 176.387 29.84V30.377C178.002 30.538 178.111 31.25 178.111 31.988L178.165 32.002V32.002ZM138.875 41.694C136.961 41.617 135.408 40.134 135.265 38.244L134.749 38.391L135.061 41.64C136.13 42.2333 137.327 42.5602 138.55 42.593C141.958 42.593 143.465 40.606 143.465 38.753C143.465 34.311 136.825 35.331 136.825 32.042C136.856 31.497 137.112 30.988 137.533 30.635C137.954 30.282 138.503 30.116 139.053 30.175C139.445 30.1495 139.838 30.2025 140.21 30.331C140.581 30.4594 140.923 30.6607 141.216 30.923C141.805 31.453 142.151 32.195 142.175 32.982H142.826L142.623 30.095C141.611 29.5829 140.498 29.3034 139.365 29.277C136.215 29.277 134.925 31.304 134.925 32.901C134.925 37.451 141.157 36.378 141.157 39.721C141.154 40.0091 141.089 40.2931 140.965 40.5534C140.842 40.8138 140.664 41.0443 140.443 41.229C140.22 41.4152 139.961 41.5517 139.681 41.6295C139.402 41.7073 139.109 41.7245 138.822 41.68L138.876 41.694H138.875ZM94.8199 24.9C95.1842 24.8848 95.5286 24.7298 95.7815 24.4672C96.0345 24.2046 96.1764 23.8546 96.1779 23.49C96.1769 23.3127 96.1409 23.1374 96.0721 22.974C96.0033 22.8106 95.903 22.6624 95.7769 22.5378C95.6508 22.4132 95.5013 22.3146 95.3371 22.2477C95.1729 22.1808 94.9972 22.147 94.8199 22.148C94.0519 22.148 93.4289 22.764 93.4289 23.524C93.4289 24.284 94.0519 24.9 94.8199 24.9V24.9ZM168.62 41.103L169.272 36.968L168.62 36.808C168.19 39.621 165.742 41.699 162.864 41.694C158.465 41.694 154.338 37.599 154.338 31.881C154.338 25.101 159.117 22.927 162.402 22.927C165.688 22.927 167.982 24.269 168.512 27.558H169.232L168.946 23.531C166.783 22.6531 164.489 22.145 162.158 22.028C156.551 22.028 151.297 26.189 151.297 31.988C151.297 38.351 155.519 42.62 162.157 42.62C164.397 42.561 166.597 42.04 168.62 41.09V41.103V41.103ZM118.388 42.607C119.462 42.5376 120.503 42.2112 121.425 41.6551C122.346 41.0991 123.121 40.3298 123.683 39.412L123.289 39.022C122.808 39.5821 122.218 40.0386 121.556 40.364C120.893 40.6894 120.171 40.8769 119.434 40.915C117.153 40.915 115.361 38.714 115.239 36.029C115.171 35.4851 115.171 34.9349 115.239 34.391H123.276L123.534 34.217C123.546 34.047 123.546 33.877 123.534 33.707C123.527 33.0955 123.395 32.4919 123.145 31.9336C122.895 31.3754 122.533 30.8745 122.082 30.462C121.627 30.0467 121.094 29.7276 120.513 29.524C119.931 29.3203 119.315 29.2363 118.701 29.277C116.705 29.277 112.931 30.914 112.931 36.458C112.944 38.23 113.854 42.593 118.402 42.593L118.388 42.607V42.607ZM118.578 30.163C118.919 30.1539 119.258 30.2161 119.573 30.3458C119.888 30.4755 120.173 30.6697 120.409 30.916C120.883 31.413 121.121 32.086 121.063 32.766C121.081 32.8711 121.071 32.9789 121.036 33.0793C121 33.1797 120.94 33.2695 120.86 33.34C120.78 33.411 120.683 33.4609 120.578 33.485C120.474 33.5091 120.365 33.5067 120.262 33.478H115.279C115.659 31.424 116.854 30.149 118.606 30.149L118.578 30.163V30.163ZM86.8779 48.339H84.6659V48.929H85.0729C85.4329 48.907 85.7849 49.044 86.0339 49.303C86.1566 49.4304 86.2496 49.5833 86.3063 49.7508C86.363 49.9183 86.382 50.0963 86.3619 50.272V55.923L79.5739 48.312H76.3429V48.902H76.6149C77.3649 48.902 77.9719 49.503 77.9719 50.245V56.729C77.9719 57.95 77.6599 58.608 76.6149 58.621H76.3289V59.212H80.5249V58.622H80.1849C79.0179 58.622 78.8269 58.232 78.8269 56.89V50.728L86.7289 59.427H87.4479V59.347C87.3766 58.8356 87.3448 58.3194 87.3529 57.803V50.795C87.3529 48.983 88.0329 48.929 88.7109 48.902H89.0099V48.258H88.9419C88.1819 48.258 87.5429 48.325 86.9049 48.325L86.8779 48.339V48.339ZM73.2339 48.339H70.8579V48.929H71.1429C71.7129 48.929 72.2289 48.929 72.2289 49.749V57.803C72.2289 58.554 71.7139 58.608 71.1429 58.621H70.8579V59.212H75.7319V58.622H75.4329C74.8629 58.622 74.3469 58.622 74.3469 57.802V49.748C74.3469 48.996 74.8629 48.943 75.4329 48.929H75.7189V48.259H75.7049C74.9719 48.259 74.0749 48.325 73.2609 48.325L73.2339 48.339V48.339ZM204.135 56.393C204.046 56.7795 203.89 57.1473 203.674 57.48C203.317 57.926 202.801 58.2152 202.234 58.286C201.841 58.306 201.447 58.306 201.054 58.286H200.198C200.087 58.2953 199.976 58.2816 199.871 58.246C199.766 58.2104 199.67 58.1536 199.588 58.079C199.506 58.005 199.441 57.9148 199.396 57.814C199.352 57.7132 199.329 57.6042 199.329 57.494V49.56C199.329 48.782 199.723 48.808 200.321 48.795H200.769V48.258H195.949V48.848H196.234C196.804 48.848 197.334 48.848 197.334 49.654V57.561C197.354 57.704 197.339 57.8497 197.288 57.9851C197.238 58.1204 197.155 58.241 197.046 58.336C196.936 58.4318 196.805 58.4993 196.664 58.5325C196.522 58.5658 196.375 58.5639 196.234 58.527H195.949V59.118H204.095C204.285 58.246 204.502 57.386 204.665 56.5V56.42H204.081L204.135 56.393V56.393ZM194.252 57.977C194.048 57.521 193.858 56.957 193.682 56.42L190.817 48.365C190.817 48.245 190.722 48.097 190.681 47.976C190.664 47.9445 190.639 47.9186 190.607 47.9019C190.576 47.8851 190.54 47.8782 190.505 47.882C190.455 47.8722 190.404 47.8722 190.355 47.882C189.925 48.142 189.47 48.362 188.998 48.54C188.829 49.199 188.626 49.8486 188.388 50.486L185.903 57.548C185.723 58.135 185.165 58.527 184.545 58.501H184.395V59.105H188.117V58.5H187.872C187.356 58.5 186.772 58.406 186.772 58.03C186.847 57.626 186.961 57.23 187.112 56.848L187.587 55.291H191.022L191.606 57.036C191.753 57.386 191.858 57.75 191.918 58.124C191.918 58.419 191.375 58.5 191.022 58.5H190.832V59.104H195.38V58.5H195.217C195.024 58.5199 194.83 58.4788 194.662 58.3825C194.494 58.2861 194.36 58.1394 194.28 57.963L194.253 57.976L194.252 57.977ZM187.898 54.353L189.256 50.231L190.614 54.353H187.898ZM184.572 48.876V48.258H180.418V48.848H180.825C181.187 48.822 181.542 48.957 181.792 49.218C182.042 49.478 182.161 49.835 182.115 50.191V55.843L175.327 48.231H172.096V48.821H172.367C173.117 48.821 173.725 49.423 173.725 50.164V56.648C173.725 57.87 173.426 58.528 172.367 58.528H172.082V59.132H176.277V58.527H175.897C174.729 58.527 174.539 58.138 174.539 56.796V50.634L182.441 59.333H183.16V59.253C183.095 58.7411 183.068 58.225 183.079 57.709V50.7C183.079 48.888 183.758 48.834 184.436 48.807H184.736L184.572 48.875V48.876ZM204.936 49.963L204.665 49.587C204.777 49.5607 204.877 49.4972 204.948 49.407C205.02 49.3168 205.059 49.2051 205.059 49.09C205.054 49.0242 205.035 48.9601 205.004 48.9021C204.973 48.844 204.929 48.7932 204.877 48.753C204.824 48.7126 204.764 48.6835 204.699 48.6677C204.635 48.6518 204.567 48.6496 204.502 48.661H203.66V48.741C203.877 48.741 203.891 48.741 203.891 48.956V50.151C203.891 50.271 203.891 50.271 203.647 50.299V50.406H204.407V50.326C204.203 50.326 204.177 50.326 204.177 50.191V49.654H204.407C204.534 49.946 204.735 50.2 204.991 50.393H205.317C205.17 50.2626 205.045 50.1081 204.95 49.936L204.936 49.963V49.963ZM204.407 49.547H204.217V48.782H204.407C204.453 48.7796 204.498 48.7872 204.541 48.8043C204.583 48.8214 204.622 48.8476 204.653 48.881C204.684 48.9142 204.707 48.9538 204.721 48.997C204.735 49.0403 204.739 49.086 204.733 49.131C204.74 49.1782 204.738 49.2265 204.725 49.2726C204.712 49.3187 204.69 49.3614 204.659 49.398C204.628 49.4351 204.59 49.4651 204.546 49.4862C204.503 49.5072 204.455 49.5187 204.407 49.52V49.547ZM165.661 48.057C164.897 48.0471 164.138 48.1889 163.429 48.4742C162.72 48.7595 162.075 49.1826 161.531 49.719C160.991 50.2518 160.564 50.8879 160.275 51.5894C159.986 52.2909 159.841 53.0434 159.85 53.802C159.838 54.5617 159.984 55.3156 160.279 56.0159C160.574 56.7161 161.011 57.3475 161.563 57.87C162.119 58.3965 162.776 58.8037 163.495 59.0668C164.214 59.3299 164.979 59.4433 165.743 59.4C166.535 59.4234 167.324 59.2847 168.06 58.9923C168.797 58.7 169.466 58.2602 170.027 57.7C170.584 57.1437 171.019 56.4777 171.305 55.7444C171.591 55.0111 171.721 54.2264 171.688 53.44C171.688 50.084 169.014 48.03 165.674 48.03L165.661 48.057V48.057ZM165.891 58.581C163.434 58.581 162.171 56.004 162.158 53.211C162.158 51.158 162.958 48.821 165.62 48.821C168.28 48.821 169.367 51.507 169.367 53.721C169.367 55.937 168.865 58.554 165.905 58.554L165.891 58.581ZM204.475 47.922C203.568 47.922 202.832 48.65 202.832 49.547C202.832 50.444 203.568 51.171 204.475 51.171C205.382 51.171 206.118 50.444 206.118 49.547C206.125 49.331 206.088 49.1159 206.009 48.9147C205.93 48.7135 205.811 48.5305 205.659 48.377C205.506 48.2227 205.324 48.1006 205.123 48.018C204.922 47.9354 204.706 47.8939 204.489 47.896L204.475 47.922ZM204.475 50.862C204.298 50.8631 204.122 50.8292 203.958 50.7623C203.793 50.6955 203.644 50.5969 203.518 50.4723C203.392 50.3477 203.292 50.1994 203.223 50.036C203.154 49.8727 203.118 49.6973 203.117 49.52C203.118 49.3427 203.154 49.1674 203.223 49.004C203.292 48.8406 203.392 48.6924 203.518 48.5678C203.644 48.4431 203.793 48.3446 203.958 48.2777C204.122 48.2108 204.298 48.177 204.475 48.178C205.225 48.178 205.832 48.778 205.832 49.52C205.823 49.8709 205.677 50.2045 205.426 50.45C205.176 50.6955 204.839 50.8336 204.488 50.835L204.475 50.862ZM133.81 48.85V48.26H129.71V48.85H130.117C130.479 48.823 130.834 48.958 131.084 49.218C131.334 49.478 131.453 49.836 131.407 50.192V55.844L124.619 48.232H121.333V48.822H121.605C122.355 48.822 122.963 49.424 122.963 50.165V56.635C122.963 57.871 122.65 58.515 121.605 58.528H121.32V59.119H125.515V58.529H125.189C124.022 58.529 123.831 58.139 123.831 56.797V50.635L131.733 59.334H132.452V59.254C132.379 58.7427 132.348 58.2264 132.357 57.71V50.7C132.357 48.888 133.037 48.834 133.715 48.807H133.81V48.847V48.85ZM119.297 57.642L116.69 53.776C117.28 53.6051 117.802 53.2549 118.184 52.774C118.566 52.2931 118.789 51.7053 118.822 51.092C118.822 48.863 117.002 48.326 115.048 48.326H110.12V48.916H110.473C110.961 48.916 111.491 48.916 111.504 50.018V57.83C111.491 57.9494 111.453 58.0648 111.393 58.169C111.333 58.2731 111.253 58.3637 111.156 58.435C111.059 58.5066 110.948 58.5577 110.831 58.5852C110.713 58.6127 110.592 58.616 110.473 58.595H110.12V59.186H115.156V58.596H114.803C114.083 58.596 113.609 58.596 113.595 57.428V54.206H114.518C115.476 55.9329 116.552 57.5924 117.736 59.173H120.79V58.583C120.48 58.5788 120.178 58.4887 119.917 58.3227C119.655 58.1567 119.445 57.9214 119.31 57.643H119.297V57.642ZM114.26 53.454H113.581V49.064C113.853 49.046 114.125 49.046 114.396 49.064C114.996 49.02 115.586 49.236 116.01 49.656C116.436 50.076 116.654 50.66 116.609 51.253C116.652 51.5628 116.621 51.8786 116.518 52.1738C116.414 52.469 116.241 52.7352 116.014 52.95C115.785 53.1668 115.508 53.3267 115.206 53.4167C114.903 53.5067 114.584 53.5242 114.274 53.468L114.26 53.454V53.454ZM99.6399 47.721V47.788C99.6399 48.191 99.2999 48.191 98.8659 48.204H90.7199C90.3259 48.204 90.0409 48.204 89.9329 47.802H89.4439V47.869C89.4469 48.318 89.4139 48.767 89.3489 49.211C89.3489 49.654 89.2269 50.084 89.1589 50.554V50.634H89.7559C90.0139 49.494 89.9869 49.292 91.1139 49.292H93.5979V57.44C93.5979 58.635 93.2319 58.648 92.3759 58.662H92.0099V59.252H97.1819V58.662H96.8159C96.0689 58.662 95.6079 58.568 95.5939 57.4V49.345H98.0779C98.4219 49.365 98.7399 49.533 98.9479 49.804C99.1579 50.074 99.2359 50.422 99.1649 50.755V50.849L99.8709 50.406V49.157C99.8709 48.741 99.9789 48.325 100.033 47.922L99.5989 47.855H99.5309L99.6399 47.721V47.721ZM108.94 56.38C108.478 58.111 107.718 58.205 105.844 58.205C104.826 58.205 104.011 58.205 104.011 57.265V53.75H105.817C106.849 53.75 106.862 54.273 106.957 55.213V55.28L107.5 55.172V51.615H106.903C106.794 52.447 106.645 52.957 105.735 52.957H103.943V49.065H106.048C106.292 49.0135 106.545 49.0218 106.785 49.0892C107.025 49.1566 107.245 49.2811 107.427 49.452C107.794 49.798 107.963 50.302 107.88 50.796V50.876L108.424 50.729V48.259H100.509V48.849H100.794C101.35 48.849 101.866 48.849 101.88 49.669V57.723C101.88 58.475 101.364 58.528 100.794 58.542H100.509V59.132H108.83C108.966 58.314 109.156 57.508 109.36 56.689L108.857 56.555L108.938 56.381L108.94 56.38ZM157.026 48.325H154.718V48.915H155.003C155.573 48.915 156.076 48.915 156.089 49.735V57.789C156.089 58.541 155.574 58.595 155.003 58.608H154.718V59.198H159.47V58.608H159.185C158.615 58.608 158.099 58.608 158.099 57.789V49.735C158.099 48.983 158.615 48.929 159.185 48.915H159.47V48.258C158.723 48.258 157.8 48.325 157.026 48.325V48.325ZM143.45 57.964C143.246 57.507 143.056 56.944 142.88 56.406L140.015 48.352L139.879 47.962C139.862 47.9339 139.839 47.9105 139.81 47.8942C139.782 47.8779 139.75 47.8693 139.717 47.869C139.667 47.8595 139.616 47.8595 139.567 47.869C139.135 48.1279 138.681 48.3481 138.21 48.527C138.04 49.187 137.83 49.837 137.585 50.473L135.087 57.534C135.001 57.8094 134.83 58.0503 134.598 58.2217C134.366 58.3931 134.085 58.486 133.797 58.487H133.634V59.091H137.314V58.487H137.083C136.567 58.487 135.983 58.393 135.983 58.017C136.058 57.6134 136.172 57.2179 136.323 56.836L136.811 55.279H140.246L140.843 57.024C140.985 57.374 141.086 57.739 141.143 58.111C141.143 58.407 140.613 58.487 140.246 58.487H140.002V59.091H144.672V58.487H144.509C144.305 58.5291 144.093 58.5002 143.908 58.4051C143.722 58.3099 143.575 58.1543 143.491 57.964H143.45V57.964ZM137.096 54.339L138.454 50.218L139.812 54.339H137.096ZM153.659 47.775V47.842C153.659 48.245 153.319 48.245 152.885 48.258H144.74C144.346 48.258 144.06 48.258 143.952 47.855H143.464V47.922C143.466 48.372 143.434 48.82 143.369 49.265C143.369 49.708 143.246 50.137 143.179 50.607V50.687H143.776C144.034 49.547 144.006 49.345 145.133 49.345H147.618V57.494C147.618 58.689 147.251 58.702 146.396 58.715H146.029V59.306H151.202V58.716H150.835C150.089 58.716 149.627 58.621 149.614 57.454V49.399H152.098C152.442 49.419 152.76 49.586 152.968 49.857C153.178 50.128 153.256 50.476 153.184 50.809V50.903L153.741 50.701V49.453C153.741 49.037 153.849 48.621 153.917 48.218L153.469 48.151H153.401L153.659 47.775V47.775Z" fill="black"/>
<path fill-rule="evenodd" clip-rule="evenodd" d="M29.424 67.763C14.42 67.868 2.157 55.953 2 41.117C2 25.088 14.381 14 29.424 14H36.47C51.336 14 64.898 25.075 64.898 41.117C64.898 55.776 51.322 67.763 36.47 67.763H29.424V67.763ZM29.424 16.228C15.68 16.228 4.539 27.245 4.539 40.835C4.539 54.425 15.68 65.44 29.424 65.44C43.168 65.44 54.309 54.423 54.309 40.834C54.309 27.264 43.201 16.257 29.479 16.227H29.424V16.228ZM23.844 55.386V26.243C17.722 28.539 13.674 34.34 13.674 40.814C13.674 47.289 17.722 53.089 23.844 55.386V55.386ZM45.267 40.835C45.273 34.362 41.238 28.558 35.126 26.243V55.359C41.216 53.053 45.244 47.282 45.267 40.835Z" fill="#004A97"/>
</svg>
