<svg width="114" height="74" viewBox="0 0 114 74" fill="none" xmlns="http://www.w3.org/2000/svg">
<path fill-rule="evenodd" clip-rule="evenodd" d="M5.61963 68.2181H108.211V4.73132H5.61963V68.2181Z" fill="#1A1919"/>
<path fill-rule="evenodd" clip-rule="evenodd" d="M38.1476 48.0961C37.1551 49.0769 35.9773 49.8505 34.6829 50.3716C33.3884 50.8928 32.0032 51.1511 30.608 51.1316C28.6743 51.0996 26.7875 50.5308 25.1583 49.4887L21.2354 55.7631C24.009 57.5254 27.2172 58.4834 30.5029 58.5304C32.8687 58.5692 35.2184 58.1361 37.4149 57.2565C39.6114 56.3768 41.6105 55.0682 43.2955 53.4071L38.1476 48.0961V48.0961ZM20.2854 41.6428C20.2348 41.2201 20.2131 40.7944 20.2206 40.3687C20.3144 34.51 25.1136 29.8404 30.941 29.9343C32.4493 29.9564 33.9351 30.3038 35.2968 30.9526C36.6586 31.6015 37.8643 32.5366 38.8316 33.6941L20.2854 41.6428ZM31.0461 22.5266C21.1571 22.3746 13.0073 30.3099 12.8553 40.2502C12.7929 43.8321 13.8033 47.3507 15.7567 50.3537L48.2266 36.4189C46.3981 28.5663 39.4419 22.6607 31.0461 22.5266V22.5266ZM58.4083 14.4147V49.1735L64.4146 51.6748L61.5757 58.5304L55.6343 56.0493C54.2976 55.4681 53.3946 54.5829 52.7061 53.5815C52.0489 52.56 51.5594 51.1584 51.5594 49.2696V14.4147H58.4083ZM80.0616 30.4775C81.4804 30.0062 82.9831 29.8416 84.4703 29.9946C85.9575 30.1475 87.3953 30.6145 88.6885 31.3646C89.9817 32.1148 91.1009 33.131 91.972 34.346C92.8431 35.5611 93.4463 36.9472 93.7416 38.4128L100.977 36.933C99.3164 28.7116 92.0786 22.5221 83.4034 22.5221C81.4162 22.5221 79.5073 22.8484 77.7257 23.4475L80.0616 30.4775V30.4775ZM71.525 54.0107L76.4159 48.4627C75.2946 47.4674 74.3976 46.2453 73.7841 44.8773C73.1706 43.5093 72.8547 42.0266 72.8573 40.5274C72.8573 37.3689 74.232 34.5368 76.4114 32.5966L71.5228 27.0463C69.6184 28.7371 68.0947 30.813 67.0524 33.1365C66.01 35.4601 65.4728 37.9785 65.4763 40.5251C65.4716 43.0735 66.0084 45.5938 67.0511 47.9191C68.0939 50.2443 69.6189 52.3215 71.525 54.0129M93.7416 42.6554C93.2579 45.0416 91.9647 47.1875 90.0808 48.73C88.197 50.2725 85.8382 51.1169 83.4034 51.1204C82.2658 51.1213 81.1356 50.9371 80.0571 50.575L77.7146 57.605C79.548 58.2206 81.4694 58.5339 83.4034 58.5327C92.0719 58.5327 99.3075 52.3521 100.975 44.1418L93.7416 42.6531V42.6554Z" fill="#FFFFFE"/>
</svg>
