<svg width="158" height="68" viewBox="0 0 158 68" fill="none" xmlns="http://www.w3.org/2000/svg">
<path fill-rule="evenodd" clip-rule="evenodd" d="M30.075 31.3269L14.1905 38.1724C14.0151 36.261 14.4487 34.3431 15.4293 32.693C16.4099 31.043 17.8873 29.7454 19.65 28.9858C21.4128 28.2262 23.3706 28.0436 25.2434 28.4641C27.1162 28.8846 28.808 29.8867 30.0768 31.3269H30.075ZM23.2534 21.4409C30.7493 21.4409 37.0325 26.6273 38.7117 33.6069L32.3035 36.4086L32.3017 36.3958L25.7429 39.2765L10.0164 46.155C8.4216 43.7601 7.50658 40.9773 7.36882 38.1032C7.23107 35.2292 7.87574 32.3716 9.23413 29.8351C10.5925 27.2986 12.6137 25.1782 15.0823 23.6999C17.5508 22.2216 20.3743 21.4409 23.2516 21.4409H23.2534ZM34.3631 48.7161C28.6677 54.1212 21.1351 54.6503 14.5175 50.6341L18.2581 44.948C22.0244 47.1986 25.8072 46.8348 29.6084 43.8493L34.3631 48.7179M40.8374 44.7808L40.797 14.7094H46.4941V43.9687C46.4941 44.2498 46.5309 44.4979 46.8983 44.6393L51.8533 46.5684L49.6211 52.374L43.8155 49.9176C41.6127 48.9862 40.8411 47.6358 40.8374 44.7808M62.2886 44.2756C61.1955 43.4284 60.3109 42.3422 59.7027 41.1002C59.0944 39.8582 58.7786 38.4934 58.7796 37.1104C58.7796 34.5181 59.8672 32.1812 61.6089 30.5277L57.9271 24.5641C56.0318 26.0596 54.5004 27.9655 53.448 30.1383C52.3957 32.3112 51.8498 34.6944 51.8514 37.1086C51.8497 39.7093 52.4829 42.2711 53.6961 44.5715C54.9092 46.8719 56.6655 48.8414 58.8126 50.309L62.2868 44.2756M64.7836 28.5674C67.0267 27.7617 69.4967 27.8704 71.6605 28.8699C73.8242 29.8695 75.5081 31.6797 76.3488 33.91L83.4 33.3221C81.6969 26.3132 75.3861 21.1084 67.8535 21.1084C65.7921 21.1068 63.7499 21.5055 61.8404 22.2823L64.7836 28.5656M76.9183 37.5495C76.8532 38.8906 76.4914 40.2005 75.8588 41.3849C75.2263 42.5692 74.3389 43.5985 73.2606 44.3984C72.1823 45.1984 70.9399 45.7491 69.623 46.011C68.3061 46.2728 66.9475 46.2392 65.6452 45.9125L62.8784 52.317C65.2278 53.0859 67.7234 53.2999 70.1694 52.9421C72.6154 52.5843 74.9452 51.6645 76.9759 50.2548C79.0067 48.8452 80.6831 46.9841 81.8735 44.8176C83.064 42.6511 83.7362 40.2381 83.8373 37.7682L76.9183 37.5477" fill="white"/>
</svg>
