<svg width="158" height="82" viewBox="0 0 158 82" fill="none" xmlns="http://www.w3.org/2000/svg">
<path fill-rule="evenodd" clip-rule="evenodd" d="M44.23 8.29595H28.285C21.24 8.62195 15.482 11.404 13.821 17.136C12.954 20.129 12.477 23.411 11.798 26.513C8.353 42.276 5.297 58.477 2 73.923H126.106C135.702 73.923 142.291 71.937 144.07 64.47C144.897 61.001 145.688 57.07 146.485 53.265C149.571 38.41 152.657 23.559 155.819 8.27795H44.229V8.29595H44.23Z" fill="#B82720"/>
<path fill-rule="evenodd" clip-rule="evenodd" d="M42.9799 31.6199C43.6459 31.1709 44.5039 29.1199 43.5229 28.2679C43.2209 27.9979 42.6929 27.9179 41.9679 28.0399C41.4479 28.0799 40.9699 28.3279 40.6449 28.7259C40.2219 29.2919 39.8349 30.9899 40.4879 31.6239C41.1399 32.2569 42.5589 31.9079 42.9789 31.6209L42.9799 31.6199ZM33.4979 28.2679C33.0199 31.3079 32.4829 34.2849 31.9419 37.2619C28.4789 37.2969 24.9399 37.4309 21.5999 37.1849C22.2309 34.2729 22.6839 31.1829 23.3119 28.2679H19.5769C18.2389 35.6989 17.0259 43.2459 15.5339 50.5239H19.3439C19.9489 46.7919 20.5009 43.0179 21.2889 39.4729C24.5389 39.3929 28.4339 39.2569 31.5559 39.5499C30.9009 43.2499 30.1309 46.7999 29.5299 50.5239H33.3399C34.5629 42.9829 35.8559 35.5069 37.3839 28.2679H33.4979V28.2679ZM87.3879 34.6659C84.4229 33.4829 82.0919 35.4769 81.0109 37.3299C81.2559 36.5039 81.3579 35.5369 81.5549 34.6659H78.6099C77.8889 40.1559 76.8229 45.3209 75.8109 50.5209H79.1569C79.6249 47.4309 79.8269 43.2639 80.8689 40.3069C81.6989 37.9399 83.8889 35.9329 87.0139 37.0309C87.0439 36.1609 87.2979 35.4949 87.3879 34.6659V34.6659ZM89.2549 46.8009C88.9529 46.0199 88.8649 44.7289 88.9529 43.7519C89.1249 41.5499 89.9429 38.8689 91.2079 37.6559C92.9539 35.9799 96.3959 36.2589 99.1409 37.1959C99.2249 36.2879 99.4129 35.4799 99.5309 34.6039C95.0279 33.8819 90.7519 34.3319 88.4879 36.6759C86.2679 38.9579 84.8159 44.1989 85.8419 47.4989C87.0499 51.3469 92.4399 51.5689 96.8069 50.0919C96.9999 49.3169 97.1089 48.4519 97.2719 47.6529C94.8799 48.8429 90.3169 49.4649 89.2549 46.8009V46.8009ZM126.815 34.7579C123.859 33.3109 121.398 35.7409 120.438 37.1969C120.713 36.4479 120.74 35.4469 120.982 34.6809H118.025C117.243 39.9965 116.284 45.2845 115.148 50.5359H118.568C118.59 48.4349 119.013 46.8809 119.348 44.8179C120.064 40.4169 121.111 35.5929 126.348 37.0429C126.526 36.2879 126.598 35.4449 126.818 34.7459L126.815 34.7579V34.7579ZM39.5489 34.6809C39.4589 34.6809 39.4639 34.8029 39.4699 34.9089C38.7339 40.3099 37.7369 45.4569 36.6709 50.5359H40.0139C40.8169 45.0989 41.7379 39.7749 42.8919 34.6809H39.5489ZM68.9479 34.3709C66.5319 34.5539 64.4879 35.2349 63.0379 36.7379C61.2569 38.5759 59.8159 42.6399 60.2389 46.3419C60.8429 51.6219 67.5489 51.4319 72.9219 50.1539C73.0119 49.2279 73.2419 48.4339 73.3899 47.5619C71.1799 48.3719 67.3499 49.5029 65.0679 48.0939C63.3519 47.0319 63.3399 44.3379 63.9019 41.9969C67.5069 41.8849 71.2549 41.9059 74.8659 41.9969C75.0959 40.3369 75.7509 38.5289 75.1679 36.8889C74.4219 34.7169 71.7139 34.1569 68.9479 34.3699V34.3709ZM72.1359 40.1619H64.2859C64.6409 38.0159 66.4999 36.4169 68.7179 36.3499C71.1339 36.2559 72.8729 37.2149 72.1449 40.1599L72.1359 40.1619V40.1619ZM56.2829 34.6659C53.4539 33.6249 50.0029 34.8679 48.5079 36.0509C48.5079 36.1049 48.4719 36.1109 48.4289 36.1139L48.5079 36.0509C48.5319 35.5419 48.7159 35.1869 48.7409 34.6779H45.8629C44.6549 42.4979 43.2419 50.0979 41.7409 57.6209H45.0929C45.5759 54.6909 45.8959 51.6009 46.5689 48.8549C47.3329 51.7409 52.3069 51.1899 54.4199 50.0749C58.7569 47.7649 62.1049 36.8149 56.2829 34.6659V34.6659ZM53.6379 47.5459C51.8509 49.4059 47.4509 49.3759 47.1069 46.2499C46.9559 44.8919 47.4719 43.4649 47.7289 42.0599C47.9859 40.6539 48.1729 39.2689 48.4289 38.0199C50.1929 35.9099 55.3749 35.6519 55.8939 39.1619C56.3499 42.2129 55.1209 46.0139 53.6379 47.5519V47.5469V47.5459ZM139.259 27.8059C138.988 30.1913 138.599 32.5618 138.094 34.9089C129.892 32.3639 124.862 38.2799 124.949 45.5819C124.967 46.9929 125.215 48.3929 126.115 49.3939C127.667 51.1159 132.115 51.5269 134.358 50.0799C134.8 49.7559 135.193 49.3699 135.524 48.9379C135.741 48.6709 136.083 47.9759 136.146 48.1739C135.989 48.955 135.888 49.7464 135.844 50.5419H138.864C139.45 42.3229 141.255 35.3019 142.596 27.8269H139.259V27.8059V27.8059ZM131.795 48.7659C129.542 48.8129 128.425 47.4489 128.374 45.1849C128.283 41.2189 130.059 36.8149 133.661 36.4179C135.34 36.2349 136.554 36.6169 137.783 37.0279C136.653 41.4739 137.061 48.6599 131.795 48.7719V48.7659ZM102.942 34.6659C102.779 35.5719 102.526 36.3919 102.32 37.2589C104.295 36.7739 110.437 35.2879 111.029 37.8689C111.225 38.7269 110.887 39.6439 110.639 40.3069C105.083 39.7919 100.554 40.6949 99.3639 44.5749C98.5669 47.1739 99.4539 49.7309 101.152 50.4449C104.425 51.8169 108.399 50.2429 109.785 48.0769C109.605 48.8769 109.527 49.6969 109.552 50.5149H112.43C112.46 47.8129 112.862 45.6289 113.285 43.1989C113.647 41.1269 114.326 39.0789 114.218 37.2529C113.973 33.0769 106.901 34.5569 102.942 34.6659V34.6659ZM108.378 47.4729C106.654 49.1269 101.816 49.5949 102.311 45.6429C102.731 42.3609 106.391 41.6659 110.316 42.1389C110.036 43.9359 109.712 46.2089 108.386 47.4759L108.378 47.4729V47.4729Z" fill="white"/>
</svg>
