<svg width="109" height="104" viewBox="0 0 109 104" fill="none" xmlns="http://www.w3.org/2000/svg">
<path fill-rule="evenodd" clip-rule="evenodd" d="M102.995 35.8511C102.995 52.1841 89.5738 65.4264 73.0179 65.4264C56.4596 65.4264 43.0381 52.1841 43.0381 35.8511C43.0381 19.518 56.4596 6.27576 73.0179 6.27576C89.5738 6.27576 102.995 19.518 102.995 35.8511V35.8511Z" fill="#F79F1A"/>
<path fill-rule="evenodd" clip-rule="evenodd" d="M66.0129 35.8511C66.0129 52.1841 52.5914 65.4264 36.0331 65.4264C19.4772 65.4264 6.05566 52.1841 6.05566 35.8511C6.05566 19.518 19.4772 6.27576 36.0331 6.27576C52.5914 6.27576 66.0129 19.518 66.0129 35.8511Z" fill="#EA001B"/>
<path fill-rule="evenodd" clip-rule="evenodd" d="M54.5243 12.5712C47.5313 17.9848 43.043 26.3972 43.043 35.8487C43.043 45.3002 47.5313 53.7199 54.5243 59.1335C61.5197 53.7199 66.0105 45.3002 66.0105 35.8487C66.0105 26.3972 61.5197 17.9848 54.5267 12.5712H54.5243Z" fill="#FF5F01"/>
<path fill-rule="evenodd" clip-rule="evenodd" d="M10.0112 95.3675V74.3426H16.9461C23.6847 74.3426 27.9187 79.1023 27.9187 84.872C27.9187 90.7023 23.6847 95.3675 16.9461 95.3675H10.0112ZM11.8667 93.7276H16.9461C22.677 93.7276 25.964 89.7891 25.964 84.872C25.964 79.9549 22.7085 75.9824 16.9461 75.9824H11.8667V93.7276ZM38.826 77.8427L44.4237 73.3035H42.406L37.392 77.8427H38.8236H38.826ZM31.5642 87.7399C31.5642 83.3266 34.7857 79.766 39.1506 79.766C43.9345 79.766 46.5723 83.4526 46.5723 87.832V88.2752H33.4196C33.5819 91.584 35.8612 94.3259 39.572 94.3259C41.5583 94.3259 43.3822 93.6017 44.7168 92.2162L45.5961 93.2868C44.0338 94.8612 42.0475 95.7454 39.4437 95.7454C34.8511 95.7454 31.5642 92.4366 31.5642 87.7399V87.7399ZM39.1167 81.183C35.4058 81.183 33.5504 84.3343 33.4196 86.9818H44.8476C44.8137 84.3972 43.0552 81.183 39.1167 81.183V81.183ZM50.9371 95.3675V74.3426H52.6278V82.6024C53.8971 80.8681 55.8833 79.766 58.0972 79.766C62.2973 79.766 65.1289 82.9488 65.1289 87.7714C65.1289 92.657 62.2658 95.7454 58.0972 95.7454C57.0287 95.7435 55.9759 95.4883 55.0251 95.0007C54.0744 94.5131 53.2528 93.807 52.6278 92.9404V95.3675H50.9347H50.9371ZM52.6278 91.5525C53.5386 93.0034 55.6241 94.2654 57.8041 94.2654C61.3212 94.2654 63.3074 91.458 63.3074 87.7714C63.3074 84.0824 61.3212 81.2459 57.8041 81.2459C55.6241 81.2459 53.541 82.5709 52.6278 84.0194V91.5525ZM70.3706 77.7458C70.7103 77.751 71.0381 77.6214 71.2824 77.3853C71.5266 77.1492 71.6674 76.8259 71.6737 76.4863C71.6737 75.7935 71.0876 75.2582 70.3706 75.2582C69.6875 75.2582 69.0699 75.7935 69.0699 76.4863C69.0699 77.1814 69.6875 77.7458 70.3706 77.7458ZM69.5252 95.3675H71.2184V80.1438H69.5252V95.3675ZM79.9117 95.7454C81.2124 95.7454 81.9609 95.3675 82.581 94.8007L81.927 93.5411C81.4596 94.0038 80.8285 94.2632 80.1709 94.263C79.0639 94.263 78.5432 93.4152 78.5432 92.1847V81.5923H81.7332V80.1438H78.5432V75.98H76.8185V80.1414H74.2122V81.5899H76.8185V92.4342C76.8185 94.5149 77.8262 95.7429 79.9117 95.7429V95.7454ZM92.0858 95.7454C87.4957 95.7454 84.5333 92.1847 84.5333 87.7399C84.5333 83.2951 87.4957 79.766 92.0858 79.766C96.7437 79.766 99.6722 83.2951 99.6722 87.7399C99.6722 92.1847 96.7413 95.7454 92.0858 95.7454ZM92.0858 94.263C95.7991 94.263 97.8507 91.1431 97.8507 87.7399C97.8507 84.3658 95.7991 81.2484 92.0858 81.2484C88.4404 81.2484 86.3573 84.3658 86.3573 87.7399C86.3573 91.1431 88.4404 94.263 92.0858 94.263Z" fill="white"/>
</svg>
