<svg width="114" height="84" viewBox="0 0 114 84" fill="none" xmlns="http://www.w3.org/2000/svg">
<path fill-rule="evenodd" clip-rule="evenodd" d="M107.421 34.2965C107.421 51.3793 93.4719 65.2276 76.2647 65.2276C59.0575 65.2276 45.1082 51.3793 45.1082 34.2965C45.1082 17.2147 59.0575 3.36639 76.2647 3.36639C93.4719 3.36639 107.421 17.2147 107.421 34.2965Z" fill="#F79F1A"/>
<path fill-rule="evenodd" clip-rule="evenodd" d="M68.9855 34.2965C68.9855 51.3793 55.0362 65.2276 37.8289 65.2276C20.6217 65.2276 6.67236 51.3793 6.67236 34.2965C6.67236 17.2147 20.6217 3.36639 37.8289 3.36639C55.0362 3.36639 68.9855 17.2147 68.9855 34.2965Z" fill="#EA001B"/>
<path fill-rule="evenodd" clip-rule="evenodd" d="M57.0468 9.94812C49.777 15.6112 45.1113 24.4099 45.1113 34.2943C45.1113 44.1787 49.777 52.9838 57.0468 58.6458C64.3165 52.9838 68.9822 44.1787 68.9822 34.2943C68.9822 24.4099 64.3165 15.6123 57.0468 9.94812V9.94812Z" fill="#FF5F01"/>
<path fill-rule="evenodd" clip-rule="evenodd" d="M13.603 80.5284H11.8347V72.3528H13.5679V73.3491C13.5679 73.3491 15.0905 72.1316 15.9943 72.1475C17.753 72.1763 18.8025 73.6574 18.8025 73.6574C18.8025 73.6574 19.6542 72.1475 21.5755 72.1475C24.4177 72.1475 24.8345 74.7228 24.8345 74.7228V80.4944H23.1364V75.4097C23.1364 75.4097 23.1418 73.8648 21.2991 73.8648C19.3926 73.8648 19.2182 75.4108 19.2182 75.4108V80.4944H17.451V75.3757C17.451 75.3757 17.2809 73.7616 15.6828 73.7616C13.6072 73.7616 13.5679 75.4097 13.5679 75.4097L13.603 80.5284V80.5284ZM67.3694 72.1454C66.4645 72.1305 64.9429 73.348 64.9429 73.348V72.3538H63.2076V80.5273H64.9769L64.9429 75.4097C64.9429 75.4097 64.9812 73.7648 67.0567 73.7648C67.4427 73.7648 67.7426 73.8573 67.9786 73.9987V73.9924L68.5549 72.4006C68.1796 72.2408 67.7772 72.1542 67.3694 72.1454V72.1454ZM92.2738 72.1454C91.37 72.1305 89.8473 73.348 89.8473 73.348V72.3538H88.112V80.5273H89.8814L89.8473 75.4097C89.8473 75.4097 89.8867 73.7648 91.9622 73.7648C92.3482 73.7648 92.647 73.8573 92.8841 73.9987V73.9924L93.4604 72.4006C93.0847 72.2407 92.682 72.154 92.2738 72.1454V72.1454ZM30.5518 72.1125C27.9053 72.1125 26.5049 74.4687 26.4986 76.4369C26.4911 78.455 28.0924 80.7825 30.6263 80.7825C32.1042 80.7825 33.3185 79.7012 33.3185 79.7012L33.3153 80.5337H35.0559V72.3506H33.3089V73.382C33.3089 73.382 32.1691 72.1125 30.5518 72.1125V72.1125ZM30.89 73.7776C32.3116 73.7776 33.4663 75.0036 33.4663 76.5113C33.4663 78.019 32.3116 79.2376 30.89 79.2376C29.4683 79.2376 28.321 78.019 28.321 76.5113C28.321 75.0036 29.4683 73.7786 30.89 73.7786V73.7776ZM81.3027 72.1125C78.6573 72.1125 77.2569 74.4687 77.2495 76.4369C77.242 78.455 78.8433 80.7825 81.3772 80.7825C82.8551 80.7825 84.0694 79.7012 84.0694 79.7012L84.0662 80.5337H85.8068V72.3506H84.0609V73.382C84.0609 73.382 82.92 72.1125 81.3027 72.1125V72.1125ZM81.6419 73.7776C83.0635 73.7776 84.2172 75.0036 84.2172 76.5113C84.2172 78.019 83.0635 79.2376 81.6419 79.2376C80.2203 79.2376 79.073 78.019 79.073 76.5113C79.073 75.0036 80.2203 73.7786 81.6419 73.7786V73.7776ZM98.0123 72.1125C95.3658 72.1125 93.9655 74.4687 93.9591 76.4369C93.9516 78.455 95.5529 80.7825 98.0868 80.7825C99.5647 80.7825 100.779 79.7012 100.779 79.7012L100.776 80.5337H102.516V69.1204H100.769V73.382C100.769 73.382 99.6296 72.1125 98.0123 72.1125ZM98.3505 73.7776C99.7721 73.7776 100.927 75.0036 100.927 76.5113C100.927 78.019 99.7721 79.2376 98.3505 79.2376C96.9288 79.2376 95.7816 78.019 95.7816 76.5113C95.7816 75.0036 96.9288 73.7786 98.3505 73.7786V73.7776ZM40.3649 80.8027C38.5627 80.8027 36.8986 79.7044 36.8986 79.7044L37.661 78.5358C37.661 78.5358 39.2357 79.2578 40.3649 79.2578C41.0986 79.2578 42.3267 79.0228 42.3416 78.2955C42.3565 77.5267 40.2788 77.2992 40.2788 77.2992C40.2788 77.2992 37.1761 77.2567 37.1761 74.7228C37.1761 73.129 38.7254 72.1125 40.7116 72.1125C41.8599 72.1125 44.0046 73.1088 44.0046 73.1088L43.138 74.4485C43.138 74.4485 41.4814 73.7925 40.6074 73.7616C39.8695 73.735 38.9784 74.0849 38.9784 74.7228C38.9784 76.456 44.1439 74.5878 44.1439 78.0892C44.1439 80.387 42.0396 80.8027 40.3649 80.8027V80.8027ZM47.0148 69.9827V72.3613H45.4762V74.0806H47.0148V78.1902C47.0148 78.1902 46.8787 80.9707 49.8952 80.9707C50.7299 80.9707 52.3631 80.3593 52.3631 80.3593L51.6645 78.573C51.6645 78.573 51.0149 79.1217 50.2823 79.1047C48.8872 79.0685 48.9266 78.1839 48.9266 78.1839V74.0795H51.8006V72.3623H48.9266V69.9827H47.0148V69.9827ZM57.4871 72.2135C54.6492 72.2135 53.2318 74.5283 53.2435 76.5379C53.2563 78.6049 54.5344 80.9303 57.6562 80.9303C58.9927 80.9303 60.8695 79.7682 60.8695 79.7682L60.0624 78.3784C60.0624 78.3784 58.7822 79.278 57.6562 79.278C55.4031 79.278 55.2574 77.0961 55.2574 77.0961H61.2895C61.2895 77.0961 61.7392 72.2135 57.4871 72.2135ZM57.2287 73.819C57.2957 73.8148 57.368 73.819 57.4393 73.819C59.5627 73.819 59.5478 75.8063 59.5478 75.8063H55.2574C55.2574 75.8063 55.1553 73.9349 57.2287 73.818V73.819ZM75.4302 78.3572L76.2393 79.9606C76.2393 79.9606 74.957 80.7857 73.5184 80.7857C70.539 80.7857 68.8856 78.5645 68.8856 76.4624C68.8856 73.1587 71.5173 72.188 73.2972 72.188C74.9134 72.188 76.3127 73.1109 76.3127 73.1109L75.4057 74.7143C75.4057 74.7143 74.856 73.8637 73.2483 73.8637C71.6438 73.8637 70.7974 75.2354 70.7974 76.5358C70.7974 77.9935 71.7831 79.2323 73.2727 79.2323C74.4424 79.2323 75.4302 78.3572 75.4302 78.3572V78.3572Z" fill="white"/>
</svg>
