<svg width="94" height="84" viewBox="0 0 94 84" fill="none" xmlns="http://www.w3.org/2000/svg">
<path fill-rule="evenodd" clip-rule="evenodd" d="M45.9966 12.4078L46.9213 12.4154C68.7623 12.7457 86.3251 24.7523 86.3759 39.4417V39.838C86.3734 40.308 86.3556 40.5925 86.3937 41.0397L86.3861 41.69C85.9821 57.2382 70.4391 69.824 45.9864 69.8773L44.9803 69.8748C20.9316 69.6207 5.50542 56.9587 5.44952 41.2886L5.4292 39.6881L5.43682 39.0682C5.8865 24.3712 23.7719 12.4738 45.8136 12.4078H45.9966ZM45.9966 13.8178H45.8213C24.8389 13.8762 7.79952 25.1333 7.34731 39.0835L7.33969 39.7008C7.37779 53.7246 24.1733 65.0859 45.0413 65.3526L45.9635 65.3577C66.9484 65.2967 83.9878 54.0396 84.44 40.092L84.4476 39.4747C84.4095 25.4865 67.7029 14.1506 46.9162 13.8229L45.9966 13.8178V13.8178Z" fill="white"/>
<path d="M27.6411 43.2753C28.759 43.2626 29.7498 44.0858 30.0038 45.1858L30.0521 45.4653L30.1436 46.1512L30.5145 45.5898C30.5526 45.5135 31.3935 44.2179 32.9737 44.0019L33.3802 43.9714C33.6038 43.9689 33.8451 43.9841 34.0814 44.0324L34.4294 44.1289C35.7861 44.5456 36.0808 45.7422 36.157 46.3595L36.1723 46.5018C36.2104 46.7864 36.3628 46.8321 36.4365 46.8397H36.4695C36.545 46.8358 36.6176 46.8093 36.6778 46.7635L36.7617 46.7076C37.0157 46.4434 37.4908 46.0471 38.2225 45.9404L38.5527 45.9149C38.8627 45.9124 39.2006 45.9785 39.5461 46.1029L39.8941 46.2427C42.0968 47.1903 41.2483 49.962 41.1619 50.2618L41.1543 50.2872C40.979 50.7293 40.9561 50.9503 41.0603 51.0849L41.1212 51.1434L41.2076 51.1866L41.2914 51.184C41.355 51.184 41.4642 51.1586 41.6014 51.1078L41.7487 51.0494C42.0003 50.9503 42.3204 50.8512 42.6583 50.8029L43.0012 50.7775C43.7888 50.7905 44.5444 51.0912 45.1257 51.6228C45.7069 52.1544 46.0736 52.8803 46.1566 53.6636L46.1769 53.9888C46.1566 55.5512 44.9193 56.9053 43.3163 57.0882L42.9911 57.106C41.3854 57.1264 40.0949 55.9399 39.851 54.347L39.8179 54.0244C39.8179 53.9177 39.8129 53.6026 39.6198 53.5035L39.4775 53.4731C39.3846 53.4798 39.2964 53.5163 39.226 53.5772L39.104 53.6915C38.7839 53.9888 38.4029 54.3191 37.8541 54.3851L37.5645 54.3953C37.3059 54.3978 37.0492 54.3521 36.8074 54.2606L36.5559 54.1514C34.869 53.4553 34.7419 52.3273 34.7953 51.7633L34.8105 51.6515C34.8386 51.5688 34.843 51.4799 34.8232 51.3949L34.7648 51.2679L34.6378 51.1815H34.5107C34.4474 51.1889 34.3866 51.2106 34.3329 51.245L34.2211 51.3161C33.8708 51.605 33.4499 51.7952 33.0017 51.8674L32.679 51.8928C32.4924 51.8962 32.3062 51.8748 32.1252 51.8293L31.8432 51.7328C29.6253 50.8334 29.6558 48.7705 29.765 47.9575L29.7853 47.8204C29.7853 47.7264 29.7853 47.6298 29.7472 47.5688L29.6964 47.5257L29.5287 47.3986L29.3636 47.5714C28.9931 47.9541 28.5008 48.1957 27.9714 48.2548L27.6589 48.2777H27.6284C26.3023 48.2777 25.2174 47.1446 25.2022 45.7854C25.1979 45.1792 25.4144 44.5921 25.8113 44.1339C26.2083 43.6757 26.7585 43.3777 27.3591 43.2957L27.6411 43.2753V43.2753ZM14.7276 23.9418C14.8089 23.8783 14.9054 23.8834 15.007 23.9164L15.1594 23.985L14.9714 23.9418C16.2316 24.5363 17.5094 24.9809 18.7619 25.3391C22.6185 26.6881 26.4801 27.6739 28.1543 27.8466L28.4236 27.8695L29.2391 27.9228L30.0572 27.9762C31.1039 27.9635 32.1455 27.7145 33.1643 27.4249L33.774 27.2471C34.3381 27.0648 34.9103 26.9088 35.4889 26.7796L36.1087 26.6602C35.969 26.805 35.814 26.9498 35.6642 27.1073L35.4457 27.3538L32.0617 31.1163C31.8381 31.35 31.3147 32.003 31.4951 32.7829L31.5815 33.0471C31.7085 33.3342 31.9092 33.5959 32.1785 33.8347L32.4707 34.0633C33.1719 34.5384 34.3863 34.8814 35.5752 34.9754L36.0833 35.0008C36.4161 34.9957 36.7515 34.9728 37.0742 34.9297L37.5416 34.8534C38.8195 34.5664 40.1558 33.5197 41.5912 32.3942L42.0739 32.0182C43.174 31.0909 44.7415 29.9553 46.0423 29.4345L46.5173 29.2668C46.7663 29.2084 47.0712 29.1448 47.3608 29.1093L47.7673 29.0788C47.8537 29.0788 47.9197 29.0788 47.9883 29.0889L48.1052 29.1144C48.9436 29.2236 49.7464 29.5081 51.0598 30.4431L51.4714 30.7428C54.1898 32.8362 66.1049 43.4151 66.7858 43.9943L66.8137 44.0197C66.8137 44.0197 67.4641 44.5989 67.5454 45.5593L67.5479 45.8921C67.5322 46.1706 67.4585 46.4428 67.3316 46.6912C67.2048 46.9397 67.0275 47.159 66.8112 47.3351L66.5647 47.5307C66.1328 47.8102 65.701 47.9779 65.264 48.0388L64.9388 48.0642C64.2071 48.0719 63.6939 47.7518 63.5491 47.6705L63.511 47.6527L63.4094 47.5561L63.1426 47.3097C61.4015 45.6892 59.6373 44.0936 57.8507 42.5233L57.6322 42.3379C57.4655 42.1926 57.2801 42.0704 57.0809 41.9746L56.9158 41.9212C56.8314 41.919 56.7486 41.9439 56.6795 41.9924L56.5855 42.094C56.3696 42.3557 56.5601 42.7037 56.804 42.9832L56.931 43.1178L61.8851 48.1862C61.8851 48.1862 62.3856 48.6537 62.5329 49.2964L62.571 49.5454C62.6167 50.2948 62.3093 50.9173 61.6742 51.4381L61.382 51.6566C60.8993 51.9843 60.4116 52.1901 59.9238 52.2333L59.6316 52.2358C59.1483 52.235 58.6759 52.0928 58.2724 51.8268L58.2038 51.7836L57.4849 51.0646L56.4991 50.084C55.7562 49.3403 54.9981 48.6118 54.2253 47.8991L53.8443 47.5612C53.6787 47.4097 53.4855 47.2916 53.2752 47.2132L53.0872 47.1878C53.0134 47.1858 52.9408 47.2062 52.8789 47.2462L52.795 47.3199C52.6883 47.4291 52.6172 47.6044 52.7823 47.8889L52.8865 48.0414C52.983 48.1684 53.0796 48.2751 53.1202 48.3183L53.1431 48.3412L56.7887 52.4822C56.8294 52.5229 57.4366 53.2368 57.0301 54.0218L56.8929 54.2352L56.771 54.408L56.6058 54.5833L56.4407 54.756C55.897 55.2133 55.1882 55.3099 54.8224 55.3302L54.6877 55.3327H54.4387L54.1872 55.2972C53.9657 55.2648 53.7526 55.1898 53.5597 55.0761L53.4733 55.005L53.2625 54.7941C52.7798 54.2987 51.4257 52.9192 50.1833 51.8471L49.8785 51.588C49.7159 51.4609 49.5355 51.3111 49.345 51.245L49.1595 51.212C49.0761 51.2126 48.9942 51.2335 48.9207 51.2729L48.8267 51.3466C48.5726 51.6489 48.8673 52.0732 49.0858 52.2892L49.1722 52.3654L52.2717 55.8332C52.2717 55.8637 52.2513 55.8917 52.2158 55.9475L52.1472 56.0492C52.0379 56.2016 51.728 56.4938 50.9023 56.6868L50.5644 56.7554L50.3561 56.7783L50.1452 56.8037C49.1214 56.8139 48.0594 56.3718 47.3862 56.0339L47.122 55.8993C47.3506 55.3835 47.5005 54.8424 47.5463 54.2962L47.5615 53.8846C47.5717 51.4 45.6891 49.3675 43.3036 49.2049L42.9428 49.1948L42.7777 49.1973C42.8412 48.0744 42.7116 46.0521 40.824 44.98L40.4226 44.7819C39.9317 44.5608 39.4084 44.4201 38.8729 44.3652L38.4918 44.3347C38.1281 44.3388 37.7667 44.3918 37.4171 44.4922L37.0742 44.6091C36.6817 43.8066 36.0173 43.1693 35.1992 42.8104L34.8334 42.6707C34.4334 42.5225 34.0141 42.4327 33.5885 42.4039L33.1973 42.3912C32.4097 42.4014 31.6526 42.5995 30.9565 43.0111L30.6136 43.2347C29.9621 42.4137 29.0122 41.8839 27.9714 41.7612L27.5827 41.7358C26.6801 41.7377 25.8079 42.0621 25.1234 42.6504L24.8338 42.9247C23.8913 42.188 20.2863 39.8735 10.6957 37.5845L9.83194 37.3838C9.41529 37.2822 8.55658 37.0383 7.8935 36.8401L7.56323 36.7411C8.42702 32.0233 10.4264 27.4732 14.7276 23.9418ZM47.7393 23.0526C51.1183 23.0475 54.5124 24.5109 55.1679 24.8005L55.2492 24.8361C58.2978 26.3655 61.4786 27.1734 64.6289 27.3004L65.4876 27.3157C68.7877 27.3157 72.1819 26.5205 75.7361 24.9657L76.6634 24.5414H76.6812L77.7304 24.0688C78.3147 25.0622 77.8879 24.6659 78.3147 25.0622C81.4877 28.0169 83.6367 31.9057 84.4501 36.1644C84.5111 36.4768 84.3993 36.5861 84.4501 36.8986L83.4034 37.145L84.2215 36.957C78.5284 38.2489 72.9761 40.0972 67.6445 42.4751L67.4666 42.5564C65.9703 41.2327 63.6939 39.2155 61.3338 37.1501L60.0457 36.0195C57.0352 33.3901 54.1009 30.8622 52.6959 29.7495L52.4165 29.5335C51.2173 28.5986 50.318 28.0651 49.5711 27.7831L49.2992 27.6917C48.9282 27.5685 48.5433 27.4917 48.1534 27.463L47.7901 27.4528C47.3201 27.4605 46.8502 27.5138 46.3649 27.6358L45.872 27.778C44.6704 28.1591 43.4763 29.0051 42.3026 29.935L41.3016 30.7428L41.2203 30.7886C39.9907 31.8048 38.6899 32.854 37.6534 33.2199L37.3155 33.3164C37.0106 33.3774 36.6854 33.4384 36.3526 33.4739L35.8547 33.5044C34.775 33.5197 33.7943 33.23 33.2887 32.8058L33.1236 32.6406C33.055 32.5746 33.0677 32.4806 33.1617 32.3332L33.2456 32.2138L33.2862 32.1681L36.6321 28.4513L36.9573 28.1159L37.6077 27.4554C39.7976 25.2731 42.1933 23.3804 46.746 23.0857L47.4472 23.0526H47.7393V23.0526Z" fill="white"/>
</svg>
