<svg width="394" height="82" viewBox="0 0 394 82" fill="none" xmlns="http://www.w3.org/2000/svg">
<path d="M80.16 21.621C71.64 21.621 64.026 26.023 64.026 34.157C64.026 43.485 77.53 44.129 77.53 48.815C77.53 50.788 75.261 52.555 71.387 52.555C65.889 52.555 61.78 50.087 61.78 50.087L60.021 58.294C60.021 58.294 64.755 60.379 71.041 60.379C80.356 60.379 87.686 55.76 87.686 47.488C87.686 37.631 74.126 37.006 74.126 32.657C74.126 31.111 75.988 29.417 79.851 29.417C84.21 29.417 87.766 31.212 87.766 31.212L89.486 23.285C89.486 23.285 85.617 21.621 80.16 21.621V21.621ZM2.206 22.22L2 23.416C2 23.416 5.585 24.07 8.813 25.374C12.97 26.87 13.266 27.741 13.966 30.446L21.596 59.762H31.822L47.577 22.219H37.374L27.25 47.745L23.12 26.108C22.74 23.632 20.821 22.219 18.472 22.219H2.206V22.22ZM51.68 22.22L43.675 59.763H53.405L61.381 22.22H51.68ZM105.945 22.22C103.599 22.22 102.356 23.472 101.444 25.66L87.189 59.763H97.392L99.366 54.079H111.797L112.997 59.763H122L114.146 22.22H105.945ZM107.272 32.363L110.296 46.451H102.194L107.272 32.363Z" fill="white"/>
</svg>
